<?xml version="1.0"?>
<svg width="682.66669" height="682.66669" xmlns="http://www.w3.org/2000/svg" xmlns:svg="http://www.w3.org/2000/svg" version="1.1" xml:space="preserve">
 <defs id="defs511">
  <clipPath clipPathUnits="userSpaceOnUse" id="clipPath521">
   <path d="m0,512l512,0l0,-512l-512,0l0,512z" id="path519"/>
  </clipPath>
 </defs>
 <g class="layer">
  <title>Layer 1</title>
  <g id="g513" transform="matrix(1.3333333,0,0,-1.3333333,0,682.66667)">
   <g id="g515">
    <g clip-path="url(#clipPath521)" id="g517">
     <g id="g523" transform="translate(180.7812,382.8301)">
      <path d="m0,0c34.76,-22.59 77.94,-68.42 67.82,-105.85c-6.67,-24.67 -46.23,-28.41 -46.23,-28.41l-0.42,-36.73" fill="none" id="path525" stroke="#ffffff" stroke-linecap="round" stroke-linejoin="round" stroke-miterlimit="10" stroke-width="15"/>
     </g>
     <g id="g527" transform="translate(223.4512,39.3101)">
      <path d="m0,0l0,-31.81l-118.85,0l0,97.93" fill="none" id="path529" stroke="#ffffff" stroke-linecap="round" stroke-linejoin="round" stroke-miterlimit="10" stroke-width="15"/>
     </g>
     <g id="g531" transform="translate(245.3911,154.4902)">
      <path d="m0,0l4.21,-9.83c4.81,-11.26 3.85,-24.17 -2.56,-34.59l-7.06,-11.46" fill="none" id="path533" stroke="#ffffff" stroke-linecap="round" stroke-linejoin="round" stroke-miterlimit="10" stroke-width="15"/>
     </g>
     <g id="g535" transform="translate(154.731,215.5098)">
      <path d="m0,0l27.15,0c16.22,0 31.31,-6.9 41.86,-18.46" fill="none" id="path537" stroke="#ffffff" stroke-linecap="round" stroke-linejoin="round" stroke-miterlimit="10" stroke-width="15"/>
     </g>
     <g id="g539" transform="translate(49.3369,256.8638)">
      <path d="m0,0c20.15,-63.26 17.7,-123.3 8.75,-147.93c-8.71,-23.94 88.73,-43.77 101.88,153.28c0.18,2.68 -1.98,4.88 -4.67,4.88l-0.05,0c-15.08,0 -27.19,12.71 -26.2,28c0.84,12.92 11.25,23.45 24.16,24.43c5.25,0.4 10.21,-0.75 14.47,-3.04c2.58,-1.39 5.78,-0.21 6.95,2.47c13.28,30.36 11.47,85.3 -15.31,99.51c-31.32,16.62 -140.72,-15.3 -119.38,-127.92" fill="none" id="path541" stroke="#ffffff" stroke-linecap="round" stroke-linejoin="round" stroke-miterlimit="10" stroke-width="15"/>
     </g>
     <g id="g543" transform="translate(248.1509,415.9302)">
      <path d="m0,0c5.74,-47.33 31.21,-104.28 50.46,-111.74c15.14,-5.88 34.96,15.9 34.96,15.9l23.92,-37.46" fill="none" id="path545" stroke="#ffffff" stroke-linecap="round" stroke-linejoin="round" stroke-miterlimit="10" stroke-width="15"/>
     </g>
     <g id="g547" transform="translate(412.3813,317.75)">
      <path d="m0,0l-18.98,31.23" fill="none" id="path549" stroke="#ffffff" stroke-linecap="round" stroke-linejoin="round" stroke-miterlimit="10" stroke-width="15"/>
     </g>
     <g id="g551" transform="translate(395.1133,489.0645)">
      <path d="m0,0c-37.96,35.86 -136.81,-0.97 -195.73,-8.57c-9.33,-60.09 54.07,-72.39 86.06,-63.41c10.9,-10.41 25.35,-16.44 38.73,-19.93c0.8,-0.2 1.55,0.42 1.55,1.24l0,0.02c0,12.51 10.53,22.57 23.22,21.78c10.82,-0.66 19.65,-9.43 20.39,-20.25c0.29,-4.24 -0.64,-8.25 -2.46,-11.7c-0.96,-1.81 -1.01,-3.96 -0.07,-5.78l13.81,-26.69c3.14,-6.07 10.5,-8.58 16.69,-5.69l8.48,3.96c3.75,1.75 6.42,5.22 7.15,9.3c3.99,22.32 14.16,95.51 -17.82,125.72z" fill="none" id="path553" stroke="#ffffff" stroke-linecap="round" stroke-linejoin="round" stroke-miterlimit="10" stroke-width="15"/>
     </g>
     <g id="g555" transform="translate(450.1709,285.8398)">
      <path d="m0,0c10.43,-16.91 24.63,-42.25 24.63,-54.89c0,-13.69 -1.68,-30.43 -4.41,-48.61" fill="none" id="path557" stroke="#ffffff" stroke-linecap="round" stroke-linejoin="round" stroke-miterlimit="10" stroke-width="15"/>
     </g>
     <g id="g559" transform="translate(322.541,78.5)">
      <path d="m0,0l0,-71l107.3,0c6.69,23.33 23.43,83.57 34.48,140.08" fill="none" id="path561" stroke="#ffffff" stroke-linecap="round" stroke-linejoin="round" stroke-miterlimit="10" stroke-width="15"/>
     </g>
     <g id="g563" transform="translate(314.7412,198.8599)">
      <path d="m0,0c-0.29,-1.85 -0.5,-3.71 -0.65,-5.59c-0.52,-6.64 -0.83,-12.7 -0.68,-17.02c0.26,-8.06 2.7,-19.75 5,-34.64" fill="none" id="path565" stroke="#ffffff" stroke-linecap="round" stroke-linejoin="round" stroke-miterlimit="10" stroke-width="15"/>
     </g>
     <g id="g567" transform="translate(441.4805,218.1299)">
      <path d="m0,0c-5.77,-14.1 -28.48,-63.62 -78.35,-108.7c-23.21,-20.99 -48.94,-37.9 -76.48,-50.28c-32.29,-14.5 -67.2,-22.82 -103.77,-24.71c-0.03,-0.01 -0.05,-0.01 -0.07,-0.01c-14.76,-0.72 -27.32,10.63 -28.09,25.39c-0.76,14.78 10.6,27.38 25.38,28.15c55.86,2.89 105.34,23.49 147.08,61.22c24.13,21.81 42.42,46.87 54.28,67.99" fill="none" id="path569" stroke="#ffffff" stroke-linecap="round" stroke-linejoin="round" stroke-miterlimit="10" stroke-width="15"/>
     </g>
     <g id="g571" transform="translate(384.4243,130.5859)">
      <path d="m0,0l-39.27,36.54" fill="none" id="path573" stroke="#ffffff" stroke-linecap="round" stroke-linejoin="round" stroke-miterlimit="10" stroke-width="15"/>
     </g>
     <g id="g575" transform="translate(307.1021,193.9668)">
      <path d="m0,0l-25.61,40.04" fill="none" id="path577" stroke="#ffffff" stroke-linecap="round" stroke-linejoin="round" stroke-miterlimit="10" stroke-width="15"/>
     </g>
     <g id="g579" transform="translate(194.2021,121.7358)">
      <path d="m0,0l253,161.86c11.06,7.08 14.28,21.77 7.21,32.83c-7.07,11.05 -21.77,14.28 -32.82,7.21l-253,-161.86" fill="none" id="path581" stroke="#ffffff" stroke-linecap="round" stroke-linejoin="round" stroke-miterlimit="10" stroke-width="15"/>
     </g>
    </g>
   </g>
  </g>
 </g>
</svg>