<?xml version="1.0" encoding="UTF-8" standalone="no"?>
<!-- Created with Inkscape (http://www.inkscape.org/) -->

<svg
   version="1.1"
   id="svg507"
   xml:space="preserve"
   width="682.66669"
   height="682.66669"
   viewBox="0 0 682.66669 682.66669"
   xmlns="http://www.w3.org/2000/svg"
   xmlns:svg="http://www.w3.org/2000/svg"><defs
     id="defs511"><clipPath
       clipPathUnits="userSpaceOnUse"
       id="clipPath521"><path
         d="M 0,512 H 512 V 0 H 0 Z"
         id="path519" /></clipPath></defs><g
     id="g513"
     transform="matrix(1.3333333,0,0,-1.3333333,0,682.66667)"><g
       id="g515"><g
         id="g517"
         clip-path="url(#clipPath521)"><g
           id="g523"
           transform="translate(180.7812,382.8301)"><path
             d="m 0,0 c 34.76,-22.59 77.94,-68.42 67.82,-105.85 -6.67,-24.67 -46.23,-28.41 -46.23,-28.41 l -0.42,-36.73"
             style="fill:none;stroke:#000000;stroke-width:15;stroke-linecap:round;stroke-linejoin:round;stroke-miterlimit:10;stroke-dasharray:none;stroke-opacity:1"
             id="path525" /></g><g
           id="g527"
           transform="translate(223.4512,39.3101)"><path
             d="M 0,0 V -31.81 H -118.85 V 66.12"
             style="fill:none;stroke:#000000;stroke-width:15;stroke-linecap:round;stroke-linejoin:round;stroke-miterlimit:10;stroke-dasharray:none;stroke-opacity:1"
             id="path529" /></g><g
           id="g531"
           transform="translate(245.3911,154.4902)"><path
             d="M 0,0 4.21,-9.83 C 9.02,-21.09 8.06,-34 1.65,-44.42 l -7.06,-11.46"
             style="fill:none;stroke:#000000;stroke-width:15;stroke-linecap:round;stroke-linejoin:round;stroke-miterlimit:10;stroke-dasharray:none;stroke-opacity:1"
             id="path533" /></g><g
           id="g535"
           transform="translate(154.731,215.5098)"><path
             d="M 0,0 H 27.15 C 43.37,0 58.46,-6.9 69.01,-18.46"
             style="fill:none;stroke:#000000;stroke-width:15;stroke-linecap:round;stroke-linejoin:round;stroke-miterlimit:10;stroke-dasharray:none;stroke-opacity:1"
             id="path537" /></g><g
           id="g539"
           transform="translate(49.3369,256.8638)"><path
             d="m 0,0 c 20.154,-63.257 17.704,-123.299 8.749,-147.926 -8.707,-23.943 88.735,-43.776 101.879,153.279 0.179,2.68 -1.98,4.881 -4.666,4.876 h -0.051 c -15.079,0 -27.189,12.711 -26.199,28.003 0.837,12.919 11.244,23.451 24.153,24.429 5.257,0.398 10.218,-0.754 14.473,-3.045 2.578,-1.388 5.781,-0.207 6.954,2.475 13.278,30.356 11.467,85.294 -15.311,99.507 C 78.661,178.223 -30.738,146.303 -9.399,33.679"
             style="fill:none;stroke:#000000;stroke-width:15;stroke-linecap:round;stroke-linejoin:round;stroke-miterlimit:10;stroke-dasharray:none;stroke-opacity:1"
             id="path541" /></g><g
           id="g543"
           transform="translate(248.1509,415.9302)"><path
             d="m 0,0 c 5.74,-47.33 31.21,-104.28 50.46,-111.74 15.14,-5.88 34.96,15.9 34.96,15.9 l 23.92,-37.46"
             style="fill:none;stroke:#000000;stroke-width:15;stroke-linecap:round;stroke-linejoin:round;stroke-miterlimit:10;stroke-dasharray:none;stroke-opacity:1"
             id="path545" /></g><g
           id="g547"
           transform="translate(412.3813,317.75)"><path
             d="M 0,0 -18.98,31.23"
             style="fill:none;stroke:#000000;stroke-width:15;stroke-linecap:round;stroke-linejoin:round;stroke-miterlimit:10;stroke-dasharray:none;stroke-opacity:1"
             id="path549" /></g><g
           id="g551"
           transform="translate(395.1133,489.0645)"><path
             d="m 0,0 c -37.956,35.859 -136.809,-0.969 -195.734,-8.572 -9.322,-60.087 54.079,-72.392 86.061,-63.407 10.904,-10.41 25.352,-16.438 38.736,-19.927 0.797,-0.208 1.551,0.413 1.55,1.236 v 0.017 c 0,12.514 10.531,22.57 23.214,21.787 10.821,-0.668 19.65,-9.434 20.392,-20.251 0.291,-4.243 -0.635,-8.248 -2.459,-11.704 -0.956,-1.809 -1.006,-3.959 -0.066,-5.776 l 13.805,-26.693 c 3.137,-6.067 10.503,-8.577 16.693,-5.689 l 8.476,3.956 c 3.757,1.753 6.42,5.225 7.151,9.306 C 21.814,-103.404 31.976,-30.209 0,0 Z"
             style="fill:none;stroke:#000000;stroke-width:15;stroke-linecap:round;stroke-linejoin:round;stroke-miterlimit:10;stroke-dasharray:none;stroke-opacity:1"
             id="path553" /></g><g
           id="g555"
           transform="translate(450.1709,285.8398)"><path
             d="m 0,0 c 10.43,-16.91 24.63,-42.25 24.63,-54.89 0,-13.69 -1.68,-30.43 -4.41,-48.61"
             style="fill:none;stroke:#000000;stroke-width:15;stroke-linecap:round;stroke-linejoin:round;stroke-miterlimit:10;stroke-dasharray:none;stroke-opacity:1"
             id="path557" /></g><g
           id="g559"
           transform="translate(322.541,78.5)"><path
             d="m 0,0 v -71 h 107.3 c 6.69,23.33 23.43,83.57 34.48,140.08"
             style="fill:none;stroke:#000000;stroke-width:15;stroke-linecap:round;stroke-linejoin:round;stroke-miterlimit:10;stroke-dasharray:none;stroke-opacity:1"
             id="path561" /></g><g
           id="g563"
           transform="translate(314.7412,198.8599)"><path
             d="m 0,0 c -0.29,-1.85 -0.5,-3.71 -0.65,-5.59 -0.52,-6.64 -0.83,-12.7 -0.68,-17.02 0.26,-8.06 2.7,-19.75 5,-34.64"
             style="fill:none;stroke:#000000;stroke-width:15;stroke-linecap:round;stroke-linejoin:round;stroke-miterlimit:10;stroke-dasharray:none;stroke-opacity:1"
             id="path565" /></g><g
           id="g567"
           transform="translate(441.4805,218.1299)"><path
             d="m 0,0 c -5.771,-14.103 -28.475,-63.62 -78.349,-108.704 -23.211,-20.982 -48.944,-37.896 -76.484,-50.272 -32.282,-14.506 -67.195,-22.823 -103.77,-24.718 -0.022,-0.002 -0.045,-0.003 -0.068,-0.004 -14.754,-0.727 -27.321,10.623 -28.086,25.383 -0.766,14.783 10.597,27.388 25.38,28.154 55.857,2.895 105.342,23.494 147.081,61.223 24.129,21.812 42.42,46.864 54.278,67.983"
             style="fill:none;stroke:#000000;stroke-width:15;stroke-linecap:round;stroke-linejoin:round;stroke-miterlimit:10;stroke-dasharray:none;stroke-opacity:1"
             id="path569" /></g><g
           id="g571"
           transform="translate(384.4243,130.5859)"><path
             d="M 0,0 -39.267,36.54"
             style="fill:none;stroke:#000000;stroke-width:15;stroke-linecap:round;stroke-linejoin:round;stroke-miterlimit:10;stroke-dasharray:none;stroke-opacity:1"
             id="path573" /></g><g
           id="g575"
           transform="translate(307.1021,193.9668)"><path
             d="M 0,0 -25.614,40.036"
             style="fill:none;stroke:#000000;stroke-width:15;stroke-linecap:round;stroke-linejoin:round;stroke-miterlimit:10;stroke-dasharray:none;stroke-opacity:1"
             id="path577" /></g><g
           id="g579"
           transform="translate(194.2021,121.7358)"><path
             d="m 0,0 253,161.864 c 11.055,7.073 14.284,21.769 7.21,32.825 -7.072,11.055 -21.769,14.284 -32.824,7.21 l -253,-161.863"
             style="fill:none;stroke:#000000;stroke-width:15;stroke-linecap:round;stroke-linejoin:round;stroke-miterlimit:10;stroke-dasharray:none;stroke-opacity:1"
             id="path581" /></g></g></g></g></svg>
