<svg height="512" viewBox="0 0 64 64" width="512" xmlns="http://www.w3.org/2000/svg"><g id="Travel-Lifestyle-AirPlane-Women-Luggage-Tourist"><path d="m8 42h2v6h-2z"/><path d="m12 42h2v6h-2z"/><path d="m16 42h2v6h-2z"/><circle cx="37" cy="23" r="2"/><circle cx="45" cy="23" r="2"/><path d="m62 17c0-.79 0-2.42-9.02-3.41a11.987 11.987 0 0 0 -23.96 0c-9.02.99-9.02 2.62-9.02 3.41 0 1.96 4.48 2.96 9.43 3.48a2.9 2.9 0 0 0 -.43 1.52v2a3.014 3.014 0 0 0 2 2.83v12.04a11.018 11.018 0 0 0 -7 4.52v-8.39a3.009 3.009 0 0 0 -3-3h-3v-7a3.009 3.009 0 0 0 -3-3h-4a3.009 3.009 0 0 0 -3 3v7h-3a3.009 3.009 0 0 0 -3 3v20a3.009 3.009 0 0 0 3 3v1a3 3 0 0 0 6 0v-1h4v1a3 3 0 0 0 6 0v-1h1a1 1 0 0 0 .79.98l14.06 3a1.492 1.492 0 0 0 .21.02h7.91a1.492 1.492 0 0 0 .21-.02l14.03-3a1 1 0 0 0 .79-.98v-8.33a11.051 11.051 0 0 0 -9-10.8v-12.04a3.023 3.023 0 0 0 2-2.83v-2a2.951 2.951 0 0 0 -.43-1.52c4.95-.52 9.43-1.52 9.43-3.48zm-44 17h3a1 1 0 0 1 1 1v3h-3a1 1 0 0 1 -1-1zm-8-9a1 1 0 0 1 1-1h4a1 1 0 0 1 1 1v7h-6zm-6 10a1 1 0 0 1 1-1h3v3a1 1 0 0 1 -1 1h-3zm1 21a1 1 0 0 1 -1-1v-3h3a1 1 0 0 1 1 1v3zm4 3a1 1 0 0 1 -2 0v-1h2zm10 0a1 1 0 0 1 -2 0v-1h2zm3-9.33v6.33h-12v-3a3.009 3.009 0 0 0 -3-3h-3v-10h3a3.009 3.009 0 0 0 3-3v-3h6v3a3.009 3.009 0 0 0 3 3h3v9h.03c-.01.22-.03.44-.03.67zm19-45.67a10.029 10.029 0 0 1 9.19 6.06 35.966 35.966 0 0 1 -9.19.94 35.966 35.966 0 0 1 -9.19-.94 10.029 10.029 0 0 1 9.19-6.06zm-10 10a9.8 9.8 0 0 1 .21-2.04 37.354 37.354 0 0 0 9.79 1.04 37.354 37.354 0 0 0 9.79-1.04 9.8 9.8 0 0 1 .21 2.04v.74c-.78.48-4.18 1.26-10 1.26s-9.22-.78-10-1.26zm-3.35 39.34.96 4.84-4.61-.99v-7.52a9.054 9.054 0 0 1 4.61-7.84l-.96 4.83a16.7 16.7 0 0 0 0 6.68zm26.7-6.68-.96-4.83a9.054 9.054 0 0 1 4.61 7.84v7.52l-4.62.99.97-4.84a16.7 16.7 0 0 0 0-6.68zm-3.18-5.72 1.22 6.12a14.556 14.556 0 0 1 0 5.88l-1.14 5.7-6.39 1.36h-7.69l-6.43-1.37-1.13-5.69a14.556 14.556 0 0 1 0-5.88l1.22-6.12a8.428 8.428 0 0 1 .9-.18l1.43-.2c1.05 5.22 7.03 9.11 7.3 9.28a.991.991 0 0 0 1.08 0c.27-.17 6.25-4.06 7.3-9.28l1.43.2c.3.04.6.11.9.18zm-6.31-.95 1.99.28c-.77 3.52-4.45 6.49-5.85 7.51-1.4-1.02-5.08-3.98-5.85-7.51l1.99-.28a1 1 0 0 0 .86-.99v-3.46a10.013 10.013 0 0 0 6 0v3.46a1 1 0 0 0 .86.99zm1.14-1.86v-3.48a9.87 9.87 0 0 0 3-2.67v6.58zm-10 0-3 .43v-6.58a8.685 8.685 0 0 0 .93 1.08 9.594 9.594 0 0 0 2.07 1.59zm15-14.13a1 1 0 0 1 -1 1 1 1 0 0 0 -1 1 8 8 0 0 1 -16 0 1 1 0 0 0 -1-1 .949.949 0 0 1 -.71-.31.928.928 0 0 1 -.29-.69v-2a1 1 0 0 1 1-1 .95.95 0 0 0 .65-.26c3.38.22 6.58.26 8.35.26s4.97-.04 8.35-.26a.95.95 0 0 0 .65.26.949.949 0 0 1 .71.31.928.928 0 0 1 .29.69zm-10-5c-10.01 0-16.9-1.1-18.69-1.99.8-.39 2.84-.97 6.85-1.42 1.14 2.16 8.52 2.41 11.84 2.41 8.87 0 11.26-1.41 11.83-2.41 4.01.45 6.06 1.03 6.86 1.42-1.79.89-8.68 1.99-18.69 1.99z"/><path d="m4.5 16.866a1 1 0 0 0 .759.1l19.319-5.176a3 3 0 1 0 -1.554-5.8l-4.133 1.11-3.091-4.675a1 1 0 0 0 -1.09-.415l-3.864 1.035a1 1 0 0 0 -.707 1.225l1.3 4.83-3.464.928-4.545-2.622a1 1 0 0 0 -1.466 1.125l2.07 7.728a1 1 0 0 0 .466.607zm2.829-4.9a1 1 0 0 0 .758.1l4.83-1.294a1 1 0 0 0 .707-1.225l-1.294-4.829 2.2-.59 3.088 4.677a1 1 0 0 0 1.093.415l4.83-1.294a1 1 0 0 1 1.225.707 1 1 0 0 1 -.707 1.225l-18.352 4.917-1.186-4.429z"/></g></svg>