<svg height="512" viewBox="0 0 64 64" width="512" xmlns="http://www.w3.org/2000/svg"><g id="Layer_5"><g><path d="m36 24c1.1 0 2-.9 2-2s.9-2 2-2 2 .9 2 2 .9 2 2 2 2-.9 2-2c0-3.3-2.7-6-6-6s-6 2.7-6 6c0 1.1.9 2 2 2z"/><path d="m20 24c1.1 0 2-.9 2-2s.9-2 2-2 2 .9 2 2 .9 2 2 2 2-.9 2-2c0-3.3-2.7-6-6-6s-6 2.7-6 6c0 1.1.9 2 2 2z"/><path d="m32 2c-16.5 0-30 13.5-30 30s13.5 30 30 30 30-13.5 30-30-13.5-30-30-30zm0 56c-14.3 0-26-11.7-26-26s11.7-26 26-26 26 11.7 26 26-11.7 26-26 26z"/><path d="m48 30c-1.1 0-2 .9-2 2 0 7.7-6.3 14-14 14s-14-6.3-14-14c0-1.1-.9-2-2-2s-2 .9-2 2c0 9.9 8.1 18 18 18s18-8.1 18-18c0-1.1-.9-2-2-2z"/></g></g></svg>