<?xml version="1.0"?>
<svg width="1060" height="706" xmlns="http://www.w3.org/2000/svg" xmlns:svg="http://www.w3.org/2000/svg" preserveAspectRatio="xMidYMid meet" version="1.0">
 <g class="layer">
  <title>Layer 1</title>
  <g fill="#000000" id="svg_1" transform="matrix(0.1 0 0 -0.1 0 0)">
   <path d="m6255,-2004c-160,-37 -300,-122 -439,-266l-88,-91l-66,64c-131,125 -257,190 -395,205c-212,22 -407,-43 -559,-186c-166,-157 -258,-385 -258,-644c0,-189 41,-350 140,-553c192,-393 537,-729 964,-939c139,-68 293,-129 376,-148c28,-6 50,-15 50,-19c0,-14 -160,-108 -295,-174c-566,-277 -1217,-286 -1732,-25c-143,73 -296,175 -489,327c-83,65 -210,165 -283,222c-297,233 -569,386 -853,479c-201,66 -345,94 -599,117c-59,6 -67,9 -82,35c-32,54 -122,143 -162,161c-26,12 -64,19 -107,19c-67,0 -643,-65 -672,-76c-9,-3 -19,-17 -22,-31c-8,-30 7,-47 113,-126c46,-34 83,-64 83,-68c0,-3 -35,-16 -77,-28c-101,-29 -125,-45 -121,-78c5,-43 29,-50 100,-31c34,10 63,16 65,14c1,-1 -27,-35 -62,-76c-38,-43 -65,-82 -65,-95c0,-50 6,-51 372,-22c385,31 410,37 477,114c22,24 54,77 72,119l33,75l70,-6c308,-28 556,-93 813,-215c219,-103 343,-187 723,-488c135,-106 305,-233 377,-282c295,-199 584,-305 922,-340c474,-48 1008,92 1429,374l114,76l86,-15c388,-68 815,-18 1219,144c93,37 142,59 294,129c69,32 360,187 621,331c371,204 670,338 903,405c103,29 282,66 321,66c7,0 -18,-31 -57,-68c-70,-69 -85,-102 -57,-130c23,-23 51,-11 119,52c75,70 172,125 264,151c72,21 85,30 85,60c0,32 -16,42 -87,54c-125,23 -214,64 -307,141c-52,43 -58,45 -87,30c-36,-20 -24,-63 29,-110c26,-23 60,-49 75,-57c16,-8 27,-16 25,-18c-2,-2 -37,-9 -78,-15c-358,-55 -663,-180 -1345,-555c-695,-381 -1024,-504 -1437,-536c-110,-8 -182,-8 -290,1c-215,17 -207,7 -87,119c315,295 575,676 734,1074c74,187 106,326 112,493c7,164 -4,241 -50,364c-89,234 -294,415 -552,484c-85,23 -246,29 -320,12zm268,-102c202,-44 387,-185 482,-366c98,-186 102,-447 11,-728c-139,-429 -463,-910 -814,-1212c-122,-105 -99,-103 -312,-32c-471,156 -864,455 -1123,854c-158,245 -224,461 -214,705c6,152 22,216 83,344c89,184 257,312 454,347c188,33 348,-25 511,-184l69,-68l-40,-75c-118,-225 -79,-379 95,-379c196,0 243,164 110,384c-19,32 -35,64 -35,72c0,7 36,51 80,97c202,214 411,292 643,241zm-733,-542c24,-63 26,-115 4,-136c-10,-10 -33,-16 -64,-16c-40,0 -51,4 -61,21c-16,31 -5,97 31,176l31,67l19,-29c11,-17 29,-54 40,-83zm-4334,-890c12,-6 36,-28 55,-49l33,-38l-95,-8c-81,-7 -311,-37 -404,-53c-25,-5 -42,4 -100,47c-38,29 -72,54 -74,56c-2,1 -2,5 0,7c3,3 343,45 474,58c36,4 83,-5 111,-20zm99,-214c-12,-40 -54,-106 -81,-127c-14,-11 -49,-24 -77,-30c-67,-12 -487,-44 -494,-37c-3,3 25,39 63,80c76,85 72,83 274,110c127,17 176,22 263,24c56,2 58,1 52,-20z" fill="url(#svg_9)" id="svg_2"/>
  </g>
 </g>
 <defs>
  <radialGradient cx="0.5" cy="0.5" id="svg_9" r="0.5" spreadMethod="pad">
   <stop id="jq_stop_8080" offset="0.63" stop-color="#f7921e"/>
   <stop id="jq_stop_6055" offset="0.92" stop-color="#63ab45" stop-opacity="1"/>
   <stop id="jq_stop_8510" offset="1" stop-color="#63ab45" stop-opacity="1"/>
   <stop id="jq_stop_8195" offset="1" stop-color="#63ab45" stop-opacity="1"/>
   <stop id="jq_stop_6515" offset="1" stop-color="#63ab45" stop-opacity="1"/>
   <stop id="jq_stop_5310" offset="1" stop-color="#63ab45" stop-opacity="1"/>
   <stop id="jq_stop_4218" offset="1" stop-color="#63ab45" stop-opacity="1"/>
   <stop id="jq_stop_9790" offset="0.64" stop-color="#63ab45" stop-opacity="1"/>
   <stop id="jq_stop_7470" offset="1" stop-color="#63ab45" stop-opacity="1"/>
  </radialGradient>
 </defs>
</svg>