<?xml version="1.0"?>
<svg width="259" height="220" xmlns="http://www.w3.org/2000/svg" xmlns:svg="http://www.w3.org/2000/svg" version="1.1">
 <g class="layer">
  <title>Layer 1</title>
  <path d="m67.74,0c0.17,0 0.35,0 0.53,0c0.23,2.17 0.45,4.35 0.67,6.52c0.08,0.74 0.15,1.48 0.23,2.21c0.11,1.07 0.22,2.13 0.33,3.2c0.07,0.64 0.14,1.28 0.2,1.94c0.14,1.76 0.17,3.5 0.15,5.27c0.62,-0.01 1.23,-0.02 1.87,-0.03c2.04,-0.03 3.99,0.24 6.01,0.52c0.18,-0.5 0.37,-1 0.56,-1.52c0.69,-1.86 1.38,-3.71 2.07,-5.56c0.3,-0.8 0.6,-1.61 0.89,-2.41c0.43,-1.15 0.86,-2.31 1.29,-3.46c0.2,-0.54 0.2,-0.54 0.4,-1.09c0.96,-2.54 0.96,-2.54 2.13,-3.64c-0.95,6.4 -1.98,12.78 -3.15,19.15c0.83,0.24 1.66,0.47 2.49,0.71c0.46,0.13 0.92,0.26 1.4,0.4c1.15,0.31 2.29,0.59 3.46,0.86c0.32,-0.44 0.62,-0.89 0.95,-1.35c1.16,-1.64 2.32,-3.28 3.49,-4.92c0.5,-0.71 1,-1.42 1.5,-2.14c0.72,-1.02 1.44,-2.04 2.17,-3.06c0.34,-0.48 0.34,-0.48 0.68,-0.97c1.6,-2.25 1.6,-2.25 2.77,-2.79c-0.71,2.09 -1.55,4.07 -2.52,6.06c-0.28,0.58 -0.56,1.16 -0.84,1.76c-0.44,0.91 -0.88,1.82 -1.32,2.73c-0.43,0.89 -0.86,1.78 -1.28,2.66c-0.25,0.53 -0.51,1.06 -0.77,1.6c-0.5,1.13 -0.88,2.16 -1.14,3.36c0.36,0.11 0.71,0.22 1.08,0.34c1.33,0.55 2.31,1.11 3.48,1.91c0.33,0.22 0.66,0.45 0.99,0.67c0.25,0.17 0.49,0.34 0.75,0.52c0.22,-0.19 0.44,-0.38 0.66,-0.57c10.86,-9.53 10.86,-9.53 14.57,-11.7c-0.9,1.96 -2.3,3.53 -3.71,5.18c-0.26,0.3 -0.51,0.6 -0.77,0.91c-1.24,1.46 -2.49,2.91 -3.8,4.32c-0.43,0.47 -0.86,0.94 -1.31,1.43c-0.39,0.41 -0.79,0.83 -1.19,1.26c-0.88,1.05 -0.88,1.05 -0.74,2.13c0.58,1.14 1.27,2.06 2.1,3.05c0.43,0.52 0.43,0.52 0.87,1.05c0.22,0.26 0.45,0.52 0.67,0.79c2.31,-0.3 4.17,-1.14 6.21,-2.15c0.34,-0.16 0.67,-0.32 1.01,-0.49c1.06,-0.52 2.12,-1.04 3.18,-1.56c0.72,-0.35 1.44,-0.71 2.17,-1.06c1.76,-0.86 3.52,-1.72 5.28,-2.59c0.17,0.32 0.35,0.65 0.53,0.98c-0.29,0.21 -0.59,0.41 -0.89,0.62c-1.36,0.95 -2.71,1.89 -4.07,2.84c-0.46,0.32 -0.92,0.65 -1.4,0.98c-2.98,2.09 -5.94,4.21 -8.87,6.36c0.19,0.37 0.38,0.75 0.57,1.13c0.25,0.49 0.49,0.98 0.74,1.48c0.24,0.49 0.49,0.97 0.74,1.47c0.57,1.33 0.57,1.33 0.57,2.8c0.66,-0.17 0.66,-0.17 1.33,-0.34c4.15,-1.05 8.31,-2.04 12.48,-2.97c0.49,-0.11 0.97,-0.22 1.48,-0.33c0.45,-0.1 0.91,-0.21 1.38,-0.31c0.4,-0.09 0.81,-0.18 1.23,-0.27c1.01,-0.2 1.01,-0.2 2.06,-0.2c0,0.32 0,0.65 0,0.98c-5.89,2.27 -11.78,4.54 -17.85,6.87c0.52,3.4 0.52,3.4 1.05,6.87c6.76,0.32 13.52,0.65 20.48,0.98c-2.11,0.99 -3.91,1.32 -6.21,1.62c-0.39,0.05 -0.79,0.11 -1.19,0.16c-1.25,0.17 -2.5,0.33 -3.75,0.5c-0.85,0.11 -1.7,0.23 -2.55,0.34c-2.08,0.28 -4.16,0.55 -6.24,0.82c-0.03,0.41 -0.06,0.81 -0.09,1.24c-0.05,0.54 -0.09,1.07 -0.14,1.62c-0.06,0.8 -0.06,0.8 -0.13,1.61c-0.17,1.43 -0.17,1.43 -0.69,2.91c0.3,0.05 0.6,0.1 0.91,0.15c3.78,0.67 7.47,1.58 11.17,2.55c0.59,0.15 1.19,0.3 1.8,0.46c0.56,0.15 1.13,0.29 1.71,0.45c0.51,0.13 1.02,0.27 1.55,0.4c1.24,0.41 1.24,0.41 2.29,1.39c-6.67,-0.31 -13.31,-0.84 -19.95,-1.47c-0.35,1.13 -0.69,2.27 -1.05,3.44c-0.87,0 -1.73,0 -2.63,0c-0.05,0.29 -0.09,0.58 -0.14,0.88c-1.52,8.37 -6.83,15.97 -14.18,20.92c-7.33,4.7 -16.12,8.26 -25.07,8.64c-0.32,-5.21 0.16,-9.18 3.71,-13.35c5.19,-5.07 13.51,-8.51 20.97,-9.23c-1.95,4.31 -6.06,6.7 -9.98,9.33c6.55,-1 11.08,-4.07 15.75,-8.35c0.42,-0.37 0.83,-0.75 1.27,-1.13c2.48,-2.24 4.64,-4.57 6.61,-7.22c-0.35,-0.16 -0.69,-0.32 -1.05,-0.49c0.06,-0.27 0.13,-0.55 0.19,-0.84c2.82,-12.43 2.39,-23.32 -4.47,-34.59c-6.58,-9.39 -16.16,-15.5 -27.88,-17.98c-11.5,-1.94 -23.38,0.11 -33.12,6.27c-9.54,6.75 -16.13,15.7 -18.05,26.85c-0.95,6.99 -0.03,13.54 1.94,20.29c-0.52,0 -1.04,0 -1.58,0c9.25,11.32 9.25,11.32 22.71,17.12c0.48,0.02 0.95,0.04 1.44,0.06c-0.36,-0.23 -0.72,-0.45 -1.1,-0.69c-3.65,-2.37 -6.56,-4.95 -9.4,-8.15c2.34,-0.69 4.04,-0.03 6.27,0.74c0.59,0.2 0.59,0.2 1.2,0.41c6.82,2.38 13.3,5.32 16.69,11.62c1.32,3.06 1.16,6.08 1.05,9.33c-9.51,-0.24 -19.25,-4.57 -26.78,-9.82c-0.8,-0.54 -0.8,-0.54 -1.61,-1.1c-5.3,-4.35 -9.04,-10.75 -11,-17.06c-0.07,-1.41 -0.07,-1.41 0,-2.45c-0.87,0 -1.73,0 -2.63,0c-0.66,-1.43 -1.05,-2.36 -1.05,-3.93c-0.35,0.16 -0.69,0.32 -1.05,0.49c-2.11,0.28 -4.23,0.47 -6.35,0.67c-1.05,0.1 -2.1,0.2 -3.15,0.3c-3.32,0.32 -6.58,0.59 -9.93,0.5c1.73,-1.08 3.39,-1.54 5.37,-2.04c0.37,-0.1 0.74,-0.2 1.12,-0.29c0.78,-0.21 1.55,-0.41 2.33,-0.61c1.19,-0.3 2.38,-0.62 3.58,-0.93c0.75,-0.2 1.51,-0.39 2.26,-0.59c0.54,-0.14 0.54,-0.14 1.08,-0.28c2.52,-0.65 2.52,-0.65 3.69,-0.65c0,-2.43 0,-4.86 0,-7.36c-0.55,-0.07 -1.09,-0.14 -1.65,-0.21c-2.03,-0.26 -4.05,-0.52 -6.08,-0.79c-0.88,-0.11 -1.75,-0.23 -2.63,-0.33c-1.27,-0.16 -2.53,-0.32 -3.79,-0.49c-0.39,-0.05 -0.78,-0.1 -1.19,-0.15c-1.89,-0.25 -3.5,-0.53 -5.14,-1.47c6.83,-0.35 13.64,-0.56 20.48,-0.49c0.05,-0.44 0.05,-0.44 0.09,-0.88c0.05,-0.39 0.09,-0.78 0.14,-1.18c0.04,-0.38 0.08,-0.76 0.13,-1.15c0.17,-1.24 0.43,-2.44 0.69,-3.66c-4.42,-2.16 -8.96,-3.92 -13.58,-5.65c-0.81,-0.31 -0.81,-0.31 -1.64,-0.63c-0.49,-0.19 -0.99,-0.37 -1.49,-0.56c-1.13,-0.53 -1.13,-0.53 -1.66,-1.51c0.91,0.18 0.91,0.18 1.83,0.36c0.4,0.08 0.8,0.16 1.21,0.24c4.63,0.91 9.25,1.82 13.87,2.73c0.4,0.08 0.8,0.16 1.21,0.24c0.91,0.18 0.91,0.18 1.83,0.36c1.04,-2.27 2.08,-4.54 3.15,-6.87c-0.69,-0.32 -1.39,-0.65 -2.1,-0.98c-0.81,-0.53 -1.61,-1.07 -2.39,-1.62c-0.68,-0.48 -0.68,-0.48 -1.38,-0.96c-0.47,-0.33 -0.93,-0.67 -1.42,-1.01c-0.46,-0.33 -0.93,-0.65 -1.41,-0.99c-2.4,-1.69 -4.77,-3.41 -7.06,-5.24c0.52,-0.24 0.52,-0.24 1.05,-0.49c1.14,0.45 1.14,0.45 2.56,1.15c0.52,0.26 1.04,0.52 1.57,0.78c0.55,0.27 1.09,0.55 1.65,0.83c1.06,0.53 2.12,1.06 3.18,1.58c0.52,0.26 1.03,0.52 1.57,0.79c2.25,1.1 4.52,2.16 6.8,3.22c0.43,-0.48 0.43,-0.48 0.86,-0.97c0.67,-0.76 1.34,-1.53 2.02,-2.29c0.99,-1.2 0.99,-1.2 0.8,-3.12c-0.82,-1.11 -1.64,-2.13 -2.56,-3.16c-0.53,-0.61 -1.05,-1.22 -1.58,-1.83c-0.27,-0.31 -0.54,-0.62 -0.82,-0.94c-1.29,-1.5 -2.55,-3.03 -3.8,-4.57c-0.44,-0.54 -0.88,-1.08 -1.32,-1.61c-0.31,-0.38 -0.62,-0.76 -0.95,-1.15c0.26,-0.49 0.26,-0.49 0.53,-0.98c0.22,0.19 0.44,0.38 0.66,0.57c5.6,4.98 5.6,4.98 11.42,9.73c0.36,0.27 0.71,0.55 1.08,0.84c0.34,0.21 0.67,0.42 1.02,0.63c2.43,-0.49 4.34,-2.07 6.3,-3.44c-0.71,-2.1 -1.56,-4.08 -2.55,-6.08c-0.42,-0.87 -0.42,-0.87 -0.86,-1.76c-0.45,-0.91 -0.9,-1.83 -1.35,-2.74c-0.44,-0.89 -0.87,-1.78 -1.3,-2.67c-0.26,-0.53 -0.52,-1.06 -0.79,-1.61c-0.5,-1.34 -0.5,-1.34 0.02,-2.81c3.64,5.02 7.28,10.04 11.03,15.22c1.91,-0.65 3.81,-1.3 5.78,-1.96c0.52,0 1.04,0 1.58,0c-0.09,-0.49 -0.19,-0.99 -0.29,-1.49c-0.36,-1.84 -0.71,-3.67 -1.06,-5.5c-0.15,-0.8 -0.3,-1.59 -0.46,-2.38c-0.22,-1.14 -0.44,-2.28 -0.66,-3.42c-0.07,-0.35 -0.14,-0.71 -0.21,-1.07c-0.34,-1.78 -0.56,-3.47 -0.48,-5.28c1.17,1.64 1.83,3.31 2.53,5.16c0.14,0.36 0.28,0.72 0.42,1.08c0.44,1.14 0.88,2.28 1.31,3.42c0.3,0.77 0.6,1.55 0.9,2.32c0.74,1.89 1.46,3.79 2.19,5.68c0.87,-0.12 0.87,-0.12 1.76,-0.24c2.09,-0.27 4.01,-0.28 6.12,-0.25c-0.01,-0.29 -0.03,-0.59 -0.04,-0.89c-0.08,-3.65 0.19,-7.25 0.53,-10.89c0.04,-0.5 0.09,-1 0.14,-1.51c0.38,-3.95 0.38,-3.95 0.95,-5.85z" fill="#FF7F00" id="svg_1"/>
  <path d="m110.26,78c1.09,2.97 -1.31,6.68 -2.72,9.42c-1.5,2.58 -3.45,4.77 -5.57,6.96c-0.27,0.29 -0.54,0.58 -0.82,0.87c-6.77,6.7 -18.49,11.09 -28.33,11.72c-0.3,0.01 -0.59,0.02 -0.9,0.04c-0.31,-4.96 0.16,-8.75 3.66,-12.72c5.12,-4.83 13.33,-8.11 20.69,-8.8c-1.92,4.11 -5.98,6.38 -9.84,8.89c6.46,-0.95 10.93,-3.88 15.54,-7.95c0.41,-0.35 0.81,-0.7 1.23,-1.06c2.62,-2.29 4.9,-4.71 7.06,-7.36z" fill="#7FC511" id="svg_2"/>
  <path d="m25.95,78c1.74,1.56 3.27,3.16 4.76,4.93c5.14,5.85 11.36,11.16 19.75,12c-0.36,-0.22 -0.72,-0.45 -1.09,-0.68c-3.63,-2.34 -6.52,-4.88 -9.34,-8.03c2.33,-0.68 4.02,-0.03 6.23,0.73c0.39,0.13 0.78,0.27 1.19,0.4c6.77,2.35 13.2,5.24 16.57,11.45c1.31,3.01 1.15,6 1.04,9.19c-9.45,-0.23 -19.12,-4.5 -26.59,-9.68c-0.53,-0.36 -1.05,-0.72 -1.6,-1.09c-5.27,-4.29 -8.98,-10.6 -10.92,-16.81c-0.07,-1.39 -0.07,-1.39 0,-2.42z" fill="#7FC511" id="svg_3"/>
  <path d="m62.88,46.66c1.33,0.83 1.33,0.83 3.24,3.43c-1.68,1.72 -3.36,3.43 -5.1,5.2c-0.84,-0.43 -1.68,-0.86 -2.55,-1.3c-2.98,-1.2 -2.98,-1.2 -6.01,-0.73c-0.33,0.24 -0.66,0.48 -1,0.73c0.21,0.64 0.42,1.29 0.64,1.95c2.08,1 4.17,1.85 6.33,2.69c3.68,1.52 5.87,3.35 7.69,7.07c0.4,3.65 0.4,6.99 -1.67,10.1c-3.17,3.45 -7.33,4 -11.78,4.22c-5.22,-0.05 -8.52,-2.1 -12.67,-5.22c1.13,-2.46 2.4,-4.1 4.46,-5.85c1.75,0 2.48,0.59 3.87,1.67c2.87,1.44 5.73,1.09 8.87,0.94c0.07,-1.57 0.07,-1.57 -0.64,-3.25c-1.65,-0.88 -3.15,-1.55 -4.89,-2.2c-6.7,-2.78 -6.7,-2.78 -8.62,-5.55c-1.09,-2.96 -1.03,-6.09 -0.5,-9.16c1.57,-3.32 3.23,-4.25 6.37,-5.85c4.8,-1.63 9.38,-0.79 13.96,1.13z" fill="#f7921e" id="svg_4"/>
  <path d="m66,46.73c3.64,-0.51 6.79,-0.74 10.41,0c2.61,2.51 3.96,5.17 5.55,8.32c0.46,0.42 0.92,0.84 1.39,1.28c1.83,-3.17 3.66,-6.33 5.55,-9.6c3.66,0 7.33,0 11.1,0c-1.69,3.26 -3.37,6.36 -5.61,9.33c-5.96,8 -7.4,14.29 -6.88,23.94c-3.21,0 -6.41,0 -9.71,0c0.07,-0.88 0.14,-1.75 0.22,-2.65c0.42,-10.88 -3.62,-17.75 -10.3,-26.53c-0.94,-1.41 -1.41,-2.46 -1.71,-4.08z" fill="#63ab45" id="svg_5"/>
 </g>
</svg>