<?xml version="1.0"?>
<svg width="259" height="220" xmlns="http://www.w3.org/2000/svg" xmlns:svg="http://www.w3.org/2000/svg" version="1.1">
 <g class="layer">
  <title>Layer 1</title>
  <path d="m129,0c0.33,0 0.66,0 1,0c0.43,4.43 0.86,8.86 1.28,13.29c0.15,1.5 0.29,3.01 0.44,4.51c0.21,2.17 0.42,4.34 0.62,6.52c0.13,1.3 0.26,2.6 0.38,3.95c0.27,3.59 0.33,7.13 0.28,10.73c1.18,-0.02 2.35,-0.04 3.56,-0.06c3.89,-0.07 7.6,0.49 11.44,1.06c0.35,-1.02 0.71,-2.04 1.07,-3.09c1.31,-3.78 2.63,-7.55 3.95,-11.33c0.57,-1.63 1.14,-3.27 1.7,-4.9c0.82,-2.35 1.64,-4.7 2.46,-7.05c0.38,-1.1 0.38,-1.1 0.76,-2.22c1.83,-5.18 1.83,-5.18 4.06,-7.41c-1.81,13.03 -3.77,26.03 -6,39c1.58,0.48 3.17,0.96 4.75,1.44c0.88,0.26 1.76,0.53 2.67,0.81c2.19,0.63 4.37,1.21 6.58,1.75c0.6,-0.9 1.19,-1.81 1.8,-2.74c2.21,-3.34 4.42,-6.68 6.64,-10.02c0.95,-1.45 1.91,-2.9 2.86,-4.35c1.38,-2.08 2.75,-4.15 4.13,-6.23c0.64,-0.98 0.64,-0.98 1.29,-1.97c3.05,-4.58 3.05,-4.58 5.28,-5.69c-1.35,4.25 -2.95,8.29 -4.79,12.35c-0.53,1.18 -1.06,2.36 -1.6,3.58c-0.84,1.85 -1.68,3.71 -2.52,5.56c-0.81,1.81 -1.63,3.62 -2.44,5.42c-0.48,1.08 -0.97,2.15 -1.47,3.25c-0.96,2.3 -1.68,4.41 -2.18,6.84c0.68,0.23 1.36,0.45 2.06,0.69c2.53,1.13 4.4,2.27 6.62,3.89c0.63,0.45 1.25,0.91 1.89,1.37c0.47,0.35 0.94,0.69 1.43,1.05c0.41,-0.39 0.83,-0.77 1.25,-1.17c20.68,-19.41 20.68,-19.41 27.75,-23.83c-1.71,3.99 -4.38,7.2 -7.06,10.56c-0.49,0.62 -0.97,1.23 -1.47,1.86c-2.36,2.98 -4.75,5.93 -7.23,8.8c-0.82,0.96 -1.64,1.92 -2.49,2.91c-0.75,0.84 -1.5,1.69 -2.27,2.57c-1.68,2.13 -1.68,2.13 -1.41,4.34c1.1,2.32 2.41,4.19 3.99,6.21c0.82,1.06 0.82,1.06 1.66,2.14c0.42,0.53 0.85,1.06 1.28,1.61c4.4,-0.61 7.95,-2.32 11.83,-4.38c0.64,-0.33 1.28,-0.66 1.93,-1c2.02,-1.06 4.04,-2.12 6.05,-3.18c1.38,-0.72 2.75,-1.44 4.13,-2.16c3.35,-1.75 6.71,-3.51 10.06,-5.28c0.33,0.66 0.66,1.32 1,2c-0.56,0.42 -1.12,0.84 -1.69,1.27c-2.59,1.93 -5.17,3.86 -7.75,5.79c-0.88,0.66 -1.75,1.32 -2.66,1.99c-5.68,4.26 -11.31,8.57 -16.9,12.95c0.36,0.76 0.72,1.52 1.09,2.3c0.47,0.99 0.93,1.99 1.41,3.01c0.46,0.99 0.93,1.97 1.41,2.99c1.09,2.7 1.09,2.7 1.09,5.7c1.26,-0.35 1.26,-0.35 2.54,-0.7c7.9,-2.14 15.82,-4.15 23.77,-6.05c0.93,-0.22 1.85,-0.45 2.81,-0.67c0.86,-0.21 1.73,-0.42 2.62,-0.63c0.77,-0.18 1.55,-0.36 2.34,-0.55c1.92,-0.4 1.92,-0.4 3.92,-0.4c0,0.66 0,1.32 0,2c-11.22,4.62 -22.44,9.24 -34,14c0.99,6.93 0.99,6.93 2,14c12.87,0.66 25.74,1.32 39,2c-4.02,2.01 -7.45,2.69 -11.83,3.29c-0.75,0.11 -1.5,0.22 -2.27,0.33c-2.38,0.34 -4.77,0.67 -7.15,1.01c-1.62,0.23 -3.24,0.46 -4.86,0.69c-3.96,0.57 -7.93,1.13 -11.89,1.68c-0.06,0.83 -0.12,1.66 -0.18,2.52c-0.09,1.09 -0.17,2.17 -0.26,3.29c-0.12,1.62 -0.12,1.62 -0.24,3.27c-0.32,2.92 -0.32,2.92 -1.32,5.92c0.57,0.1 1.14,0.21 1.73,0.31c7.2,1.37 14.22,3.21 21.27,5.19c1.13,0.31 2.26,0.62 3.43,0.93c1.07,0.3 2.15,0.6 3.26,0.91c0.97,0.27 1.94,0.54 2.95,0.82c2.36,0.84 2.36,0.84 4.36,2.84c-12.71,-0.63 -25.34,-1.72 -38,-3c-0.66,2.31 -1.32,4.62 -2,7c-1.65,0 -3.3,0 -5,0c-0.09,0.59 -0.17,1.19 -0.26,1.8c-2.89,17.05 -13.01,32.54 -27,42.61c-13.96,9.57 -30.7,16.82 -47.74,17.59c-0.6,-10.61 0.31,-18.71 7.06,-27.19c9.88,-10.33 25.73,-17.34 39.94,-18.81c-3.71,8.78 -11.55,13.65 -19,19c12.47,-2.04 21.1,-8.3 30,-17c0.8,-0.76 1.59,-1.52 2.41,-2.3c4.72,-4.57 8.84,-9.31 12.59,-14.7c-0.66,-0.33 -1.32,-0.66 -2,-1c0.12,-0.56 0.24,-1.13 0.37,-1.71c5.37,-25.33 4.56,-47.5 -8.52,-70.47c-12.54,-19.12 -30.78,-31.57 -53.1,-36.63c-21.91,-3.95 -44.52,0.22 -63.07,12.78c-18.16,13.75 -30.71,31.99 -34.38,54.69c-1.81,14.24 -0.06,27.59 3.7,41.34c-0.99,0 -1.98,0 -3,0c17.61,23.05 17.61,23.05 43.25,34.88c0.91,0.04 1.81,0.08 2.75,0.12c-0.69,-0.46 -1.38,-0.92 -2.09,-1.4c-6.96,-4.83 -12.5,-10.09 -17.91,-16.6c4.46,-1.41 7.7,-0.06 11.94,1.5c1.13,0.41 1.13,0.41 2.28,0.83c12.98,4.85 25.32,10.83 31.78,23.67c2.52,6.23 2.2,12.39 2,19c-18.12,-0.48 -36.66,-9.31 -51,-20c-1.52,-1.11 -1.52,-1.11 -3.06,-2.25c-10.1,-8.87 -17.22,-21.9 -20.94,-34.75c-0.13,-2.87 -0.13,-2.87 0,-5c-1.65,0 -3.3,0 -5,0c-1.26,-2.91 -2,-4.8 -2,-8c-0.66,0.33 -1.32,0.66 -2,1c-4.02,0.57 -8.06,0.95 -12.1,1.36c-2,0.2 -3.99,0.41 -5.99,0.62c-6.33,0.65 -12.54,1.21 -18.91,1.02c3.3,-2.2 6.46,-3.13 10.22,-4.16c0.7,-0.2 1.41,-0.4 2.13,-0.6c1.48,-0.42 2.96,-0.83 4.44,-1.24c2.27,-0.62 4.54,-1.26 6.81,-1.9c1.43,-0.4 2.87,-0.8 4.31,-1.2c1.02,-0.29 1.02,-0.29 2.06,-0.58c4.8,-1.32 4.8,-1.32 7.03,-1.32c0,-4.95 0,-9.9 0,-15c-1.04,-0.14 -2.08,-0.28 -3.15,-0.43c-3.86,-0.52 -7.72,-1.06 -11.58,-1.6c-1.67,-0.23 -3.34,-0.46 -5.01,-0.68c-2.41,-0.33 -4.81,-0.66 -7.21,-1c-0.75,-0.1 -1.49,-0.2 -2.26,-0.3c-3.6,-0.51 -6.67,-1.07 -9.79,-2.99c13.01,-0.72 25.97,-1.14 39,-1c0.09,-0.89 0.09,-0.89 0.18,-1.79c0.09,-0.79 0.17,-1.58 0.26,-2.4c0.08,-0.77 0.16,-1.55 0.24,-2.35c0.33,-2.52 0.81,-4.97 1.32,-7.46c-8.41,-4.39 -17.07,-7.98 -25.87,-11.51c-1.55,-0.64 -1.55,-0.64 -3.13,-1.28c-0.94,-0.38 -1.88,-0.76 -2.84,-1.14c-2.16,-1.07 -2.16,-1.07 -3.16,-3.07c1.73,0.36 1.73,0.36 3.49,0.73c0.76,0.16 1.52,0.32 2.3,0.49c8.81,1.85 17.61,3.71 26.42,5.56c0.76,0.16 1.52,0.32 2.3,0.49c1.73,0.36 1.73,0.36 3.49,0.73c1.98,-4.62 3.96,-9.24 6,-14c-1.32,-0.66 -2.64,-1.32 -4,-2c-1.54,-1.07 -3.06,-2.17 -4.55,-3.3c-1.3,-0.97 -1.3,-0.97 -2.62,-1.96c-0.89,-0.68 -1.78,-1.36 -2.71,-2.05c-0.88,-0.67 -1.77,-1.33 -2.68,-2.02c-4.58,-3.45 -9.08,-6.95 -13.44,-10.67c0.99,-0.49 0.99,-0.49 2,-1c2.18,0.91 2.18,0.91 4.87,2.35c0.99,0.52 1.98,1.05 2.99,1.58c1.04,0.56 2.07,1.12 3.14,1.7c2.02,1.07 4.04,2.15 6.06,3.22c0.99,0.53 1.97,1.05 2.99,1.6c4.28,2.25 8.61,4.41 12.95,6.55c0.81,-0.98 0.81,-0.98 1.63,-1.98c1.28,-1.55 2.56,-3.11 3.84,-4.66c1.89,-2.45 1.89,-2.45 1.53,-6.36c-1.56,-2.27 -3.12,-4.33 -4.88,-6.44c-1,-1.24 -2,-2.48 -3.01,-3.72c-0.51,-0.63 -1.03,-1.26 -1.56,-1.91c-2.46,-3.06 -4.85,-6.18 -7.24,-9.3c-0.83,-1.1 -1.67,-2.19 -2.51,-3.28c-0.59,-0.77 -1.19,-1.55 -1.8,-2.35c0.5,-0.99 0.5,-0.99 1,-2c0.41,0.39 0.83,0.77 1.25,1.17c10.67,10.15 10.67,10.15 21.75,19.83c0.68,0.56 1.36,1.13 2.06,1.71c0.64,0.42 1.28,0.85 1.94,1.29c4.62,-1 8.27,-4.22 12,-7c-1.35,-4.28 -2.97,-8.31 -4.86,-12.39c-0.8,-1.77 -0.8,-1.77 -1.63,-3.59c-0.85,-1.86 -1.71,-3.73 -2.57,-5.59c-0.84,-1.81 -1.66,-3.62 -2.48,-5.44c-0.5,-1.08 -0.99,-2.16 -1.5,-3.27c-0.96,-2.72 -0.96,-2.72 0.04,-5.72c6.93,10.23 13.86,20.46 21,31c3.63,-1.32 7.26,-2.64 11,-4c0.99,0 1.98,0 3,0c-0.18,-1 -0.36,-2.01 -0.55,-3.04c-0.68,-3.74 -1.35,-7.47 -2.01,-11.21c-0.29,-1.62 -0.58,-3.23 -0.88,-4.85c-0.42,-2.32 -0.83,-4.65 -1.25,-6.97c-0.13,-0.72 -0.26,-1.44 -0.4,-2.18c-0.64,-3.63 -1.06,-7.07 -0.91,-10.75c2.23,3.35 3.48,6.75 4.82,10.51c0.26,0.73 0.53,1.46 0.8,2.21c0.84,2.32 1.67,4.64 2.5,6.97c0.57,1.57 1.14,3.15 1.71,4.73c1.4,3.86 2.78,7.72 4.17,11.58c1.66,-0.24 1.66,-0.24 3.35,-0.49c3.98,-0.56 7.64,-0.58 11.65,-0.51c-0.02,-0.6 -0.05,-1.2 -0.07,-1.82c-0.15,-7.44 0.36,-14.76 1.01,-22.18c0.08,-1.02 0.17,-2.03 0.26,-3.08c0.73,-8.04 0.73,-8.04 1.8,-11.92z" fill="#FF7F00" id="svg_1"/>
  <path d="m0,0c2.11,6.34 -2.53,14.28 -5.25,20.13c-2.89,5.52 -6.66,10.19 -10.75,14.87c-0.52,0.62 -1.04,1.23 -1.58,1.87c-13.06,14.32 -35.7,23.72 -54.69,25.05c-0.57,0.03 -1.14,0.05 -1.73,0.08c-0.6,-10.61 0.31,-18.71 7.06,-27.19c9.88,-10.33 25.73,-17.34 39.94,-18.81c-3.71,8.78 -11.55,13.65 -19,19c12.47,-2.04 21.1,-8.3 30,-17c0.79,-0.75 1.57,-1.49 2.38,-2.26c5.05,-4.9 9.46,-10.08 13.62,-15.74z" fill="#7FC511" id="svg_2" transform="translate(210,158)"/>
  <path d="m0,0c3.33,3.23 6.28,6.53 9.13,10.19c9.85,12.1 21.79,23.07 37.87,24.81c-0.69,-0.46 -1.38,-0.92 -2.09,-1.4c-6.96,-4.83 -12.5,-10.09 -17.91,-16.6c4.46,-1.41 7.7,-0.06 11.94,1.5c0.75,0.27 1.5,0.55 2.28,0.83c12.98,4.85 25.32,10.83 31.78,23.67c2.52,6.23 2.2,12.39 2,19c-18.12,-0.48 -36.66,-9.31 -51,-20c-1.01,-0.74 -2.02,-1.48 -3.06,-2.25c-10.1,-8.87 -17.22,-21.9 -20.94,-34.75c-0.13,-2.87 -0.13,-2.87 0,-5z" fill="#7FC511" id="svg_3" transform="translate(48,158)"/>
  <path d="m121.91,101.73c2.09,1.27 2.09,1.27 5.09,5.27c-2.64,2.64 -5.28,5.28 -8,8c-1.32,-0.66 -2.64,-1.32 -4,-2c-4.68,-1.85 -4.68,-1.85 -9.43,-1.13c-0.52,0.37 -1.04,0.74 -1.57,1.13c0.33,0.99 0.66,1.98 1,3c3.27,1.54 6.55,2.85 9.93,4.13c5.78,2.33 9.21,5.15 12.07,10.87c0.63,5.61 0.63,10.74 -2.62,15.53c-4.97,5.3 -11.51,6.15 -18.49,6.49c-8.19,-0.07 -13.37,-3.23 -19.89,-8.02c1.77,-3.78 3.77,-6.31 7,-9c2.75,0 3.89,0.91 6.07,2.56c4.51,2.21 9,1.67 13.93,1.44c0.11,-2.42 0.11,-2.42 -1,-5c-2.59,-1.36 -4.95,-2.39 -7.68,-3.38c-10.52,-4.27 -10.52,-4.27 -13.53,-8.53c-1.71,-4.55 -1.62,-9.36 -0.79,-14.09c2.47,-5.11 5.07,-6.54 10,-9c7.53,-2.51 14.73,-1.21 21.91,1.73z" fill="#ffffff" id="svg_4" transform="matrix(1 0 0 1 0 0)"/>
  <path d="m127,100c5.25,-0.8 9.78,-1.16 15,0c3.76,3.92 5.7,8.08 8,13c0.66,0.66 1.32,1.32 2,2c2.64,-4.95 5.28,-9.9 8,-15c5.28,0 10.56,0 16,0c-2.43,5.1 -4.85,9.94 -8.08,14.58c-8.59,12.5 -10.67,22.34 -9.92,37.42c-4.62,0 -9.24,0 -14,0c0.1,-1.37 0.2,-2.74 0.31,-4.15c0.6,-17 -5.22,-27.74 -14.84,-41.47c-1.36,-2.2 -2.03,-3.85 -2.47,-6.38z" fill="#ffffff" id="svg_5"/>
 </g>
</svg>