<?xml version="1.0"?>
<svg width="500" height="500" xmlns="http://www.w3.org/2000/svg" xmlns:svg="http://www.w3.org/2000/svg">
 <g class="layer">
  <title>Layer 1</title>
  <g id="svg_64" transform="matrix(0.962844 -0.37197 0.368684 0.971428 -91.1286 117.348)">
   <path d="m512.8,237.25c-6.8,54.22 -54.3,108.35 -106.54,143.21c-135,90.82 -265.51,-63.29 -232.59,-118.64c24.71,-56.14 101.79,-40.72 134.58,-62.79c184.29,-124.92 210.94,-7.16 204.55,38.22z" fill="#FF7626" id="svg_65"/>
   <path d="m512.8,237.25c-6.8,54.22 -54.3,108.35 -106.54,143.21c-135,90.82 -265.51,-63.29 -232.59,-118.64c24.71,-56.14 101.79,-40.72 134.58,-62.79c184.29,-124.92 210.94,-7.16 204.55,38.22z" fill="#fff" id="svg_66" opacity="0.9"/>
  </g>
  <g id="freepik--background-simple--inject-3" transform="matrix(1 0 0 1 0 0)">
   <path d="m434.77,163.57c-7.45,56.67 -59.49,113.25 -116.73,149.69c-147.91,94.93 -290.9,-66.15 -254.83,-124.01c27.07,-58.68 111.52,-42.56 147.45,-65.63c201.91,-130.57 231.11,-7.48 224.11,39.95z" fill="#FF7626" id="svg_1"/>
   <path d="m434.77,163.57c-7.45,56.67 -59.49,113.25 -116.73,149.69c-147.91,94.93 -290.9,-66.15 -254.83,-124.01c27.07,-58.68 111.52,-42.56 147.45,-65.63c201.91,-130.57 231.11,-7.48 224.11,39.95z" fill="#fff" id="svg_2" opacity="0.9"/>
  </g>
  <g id="freepik--Shadow--inject-3">
   <ellipse cx="250" cy="416.24" fill="#f5f5f5" id="freepik--path--inject-3" rx="193.89" ry="11.32"/>
  </g>
  <g id="freepik--Login--inject-3">
   <polygon fill="#FF7626" id="svg_3" points="249.96 361.05 107.96 361.05 100.19 132.68 242.19 132.68 249.96 361.05"/>
   <polygon fill="#FF7626" id="svg_4" points="257.05 353.96 115.05 353.96 107.27 125.59 249.27 125.59 257.05 353.96"/>
   <polygon fill="#fff" id="svg_5" opacity="0.3" points="257.05 353.96 115.05 353.96 107.27 125.59 249.27 125.59 257.05 353.96"/>
   <ellipse cx="180.5" cy="191.09" fill="#FF7626" id="svg_6" rx="39.27" ry="40.63" transform="translate(-82.31 185.84) rotate(-45.49)"/>
   <path d="m213.47,191.09a32,32 0 0 1 -3.45,15.7a31.59,31.59 0 0 1 -28.4,17.26a34.26,34.26 0 0 1 -29.56,-17.26a33.49,33.49 0 0 1 -4.52,-15.7a31.64,31.64 0 0 1 31.84,-33a34.36,34.36 0 0 1 34.09,33z" fill="#fff" id="svg_7"/>
   <path d="m210,206.79a31.59,31.59 0 0 1 -28.4,17.26a34.26,34.26 0 0 1 -29.56,-17.26a50.59,50.59 0 0 1 28.7,-8.79a53.48,53.48 0 0 1 29.26,8.79z" fill="#FF7626" id="svg_8" opacity="0.6"/>
   <ellipse cx="180.12" cy="179.81" fill="#FF7626" id="svg_9" opacity="0.6" rx="14.44" ry="14.94" transform="translate(-74.38 182.19) rotate(-45.49)"/>
   <polygon fill="#fff" id="svg_10" points="228.52 271.26 137.94 271.26 137.33 253.26 227.91 253.26 228.52 271.26"/>
   <polygon fill="#fff" id="svg_11" points="229.62 303.43 139.03 303.43 138.42 285.43 229.01 285.43 229.62 303.43"/>
   <path d="m194.66,287.91l-21.83,3a1.52,1.52 0 0 0 -1.32,1.8l2.87,14.63a1.76,1.76 0 0 0 1.94,1.37l21.83,-3a1.53,1.53 0 0 0 1.31,-1.81l-2.86,-14.63a1.75,1.75 0 0 0 -1.94,-1.36zm-6.27,14.82l-4,0.53l-0.39,-4.72a2.8,2.8 0 0 1 -1.63,-2a2.49,2.49 0 0 1 2.16,-3a2.86,2.86 0 0 1 3.16,2.23a2.45,2.45 0 0 1 -0.78,2.33l1.48,4.63z" fill="#FF7626" id="svg_12"/>
   <path d="m192.5,287.12l0,0a1.56,1.56 0 0 1 -1.72,-1.21l-0.28,-1.43a8.23,8.23 0 0 0 -8.62,-6.56a7,7 0 0 0 -6.46,8.39l0.32,1.65a1.34,1.34 0 0 1 -1.17,1.6l0,0a1.54,1.54 0 0 1 -1.72,-1.21l-0.27,-1.39a9.85,9.85 0 0 1 8,-11.75a11.2,11.2 0 0 1 12.8,8.67l0.32,1.64a1.34,1.34 0 0 1 -1.2,1.6z" fill="#FF7626" id="svg_13"/>
   <polygon fill="#FF7626" id="svg_14" points="214.67 328.64 155.7 328.64 155.31 316.92 214.27 316.92 214.67 328.64"/>
   <path d="m186.22,262.26a3.16,3.16 0 0 1 -3.18,3.29a3.44,3.44 0 0 1 -3.41,-3.29a3.16,3.16 0 0 1 3.18,-3.29a3.43,3.43 0 0 1 3.41,3.29z" fill="#263238" id="svg_15"/>
   <path d="m172,262.26a3.15,3.15 0 0 1 -3.18,3.29a3.43,3.43 0 0 1 -3.4,-3.29a3.16,3.16 0 0 1 3.18,-3.29a3.42,3.42 0 0 1 3.4,3.29z" fill="#263238" id="svg_16"/>
   <path d="m157.87,262.26a3.16,3.16 0 0 1 -3.18,3.29a3.42,3.42 0 0 1 -3.4,-3.29a3.16,3.16 0 0 1 3.18,-3.29a3.42,3.42 0 0 1 3.4,3.29z" fill="#263238" id="svg_17"/>
   <path d="m200.39,262.26a3.16,3.16 0 0 1 -3.18,3.29a3.42,3.42 0 0 1 -3.4,-3.29a3.15,3.15 0 0 1 3.19,-3.26a3.42,3.42 0 0 1 3.39,3.26z" fill="#263238" id="svg_18"/>
   <path d="m214.56,262.26a3.15,3.15 0 0 1 -3.18,3.29a3.43,3.43 0 0 1 -3.4,-3.29a3.16,3.16 0 0 1 3.18,-3.29a3.42,3.42 0 0 1 3.4,3.29z" fill="#263238" id="svg_19"/>
  </g>
  <g id="freepik--Character--inject-3" transform="matrix(1 0 0 1 0 0)">
   <path d="m333.91,174.28c1.33,2.14 2.44,4.18 3.58,6.31s2.17,4.27 3.18,6.46a92.36,92.36 0 0 1 5.1,13.73c0.18,0.59 0.31,1.22 0.46,1.83l0.22,0.93l0.11,0.46l0.13,0.76a13.68,13.68 0 0 1 -0.31,5.16a29.24,29.24 0 0 1 -3.12,7.45a59.22,59.22 0 0 1 -8.88,11.63l-4.21,-3.18a111.39,111.39 0 0 0 5.63,-12a24.86,24.86 0 0 0 1.53,-5.63a4.46,4.46 0 0 0 -0.08,-1.77l-0.4,-1.22c-0.16,-0.5 -0.31,-1 -0.5,-1.51a113.4,113.4 0 0 0 -5.27,-12.08c-2,-4 -4.15,-8 -6.3,-11.82l9.13,-5.51z" fill="#ff8b7b" id="svg_20"/>
   <path d="m331.24,224.43l-4.6,2.43l5.28,6.18s3.3,-2.23 3.45,-5.63l-4.13,-2.98z" fill="#ff8b7b" id="svg_21"/>
   <polygon fill="#ff8b7b" id="svg_22" points="320.47 230.67 326.12 235.16 331.92 233.04 326.64 226.86 320.47 230.67"/>
   <path d="m301.15,141.56c-0.11,0.56 -0.5,0.95 -0.86,0.88s-0.57,-0.59 -0.46,-1.14s0.5,-1 0.87,-0.88s0.56,0.58 0.45,1.14z" fill="#263238" id="svg_23"/>
   <path d="m300.7,142.52a20.26,20.26 0 0 1 -3.62,4.22a3.29,3.29 0 0 0 2.56,1l1.06,-5.22z" fill="#ff5652" id="svg_24"/>
   <path d="m298.9,162.14l0,-6.56l8.68,1s-0.14,5.64 -5,7.3l-3.68,-1.74z" fill="#ff8b7b" id="svg_25"/>
   <polygon fill="#ff8b7b" id="svg_26" points="301.4 150.86 307.51 152.62 307.62 156.63 298.94 155.58 301.4 150.86"/>
   <path d="m307.51,152.62l-6.11,-1.76l-1.19,2.28a9.73,9.73 0 0 0 5.64,8.48a9.56,9.56 0 0 0 1.77,-5l-0.11,-4z" id="svg_27" opacity="0.2"/>
   <path d="m303.81,138.89a0.34,0.34 0 0 0 0.25,-0.56a3.32,3.32 0 0 0 -2.84,-1.1a0.33,0.33 0 0 0 -0.27,0.38a0.34,0.34 0 0 0 0.38,0.28l0,0a2.63,2.63 0 0 1 2.24,0.89a0.34,0.34 0 0 0 0.24,0.11z" fill="#263238" id="svg_28"/>
   <path d="m316.59,151.68c-1,5.15 -1.62,12.28 2,15.71c0,0 -1.4,5.22 -11,5.22c-10.51,0 -5.05,-4.58 -5.05,-4.58c4.37,-1.36 4.33,-6.33 3.33,-10.33l10.72,-6.02z" fill="#ff8b7b" id="svg_29"/>
   <path d="m320.54,170.83c0.94,-1.32 0.9,-5.51 -0.1,-6.25c-1.61,-1.19 -8.52,-1.47 -17.81,0.67c1,4.06 -1.15,6.18 -1.15,6.18l19.06,-0.6z" fill="#FF7626" id="svg_30"/>
   <path d="m351.8,408.24a2.29,2.29 0 0 1 -1.76,-0.1a0.68,0.68 0 0 1 -0.16,-0.77a0.77,0.77 0 0 1 0.43,-0.49c0.95,-0.46 3.13,0.43 3.23,0.47a0.16,0.16 0 0 1 0.1,0.15a0.19,0.19 0 0 1 -0.09,0.16a9.83,9.83 0 0 1 -1.75,0.58zm-1.15,-1.13a0.84,0.84 0 0 0 -0.19,0.07a0.42,0.42 0 0 0 -0.26,0.28c-0.09,0.3 0,0.4 0.06,0.43c0.38,0.32 1.78,0 2.77,-0.37a5.49,5.49 0 0 0 -2.38,-0.41z" fill="#FF7626" id="svg_31"/>
   <path d="m353.51,407.67l-0.08,0c-0.8,-0.23 -2.5,-1.44 -2.52,-2.23a0.55,0.55 0 0 1 0.43,-0.54a0.86,0.86 0 0 1 0.73,0.06c0.94,0.48 1.54,2.42 1.56,2.51a0.16,0.16 0 0 1 0,0.16a0.14,0.14 0 0 1 -0.12,0.04zm-2,-2.49l-0.08,0c-0.2,0.07 -0.2,0.17 -0.2,0.22c0,0.47 1.14,1.42 2,1.8c-0.21,-0.56 -0.67,-1.67 -1.28,-2a0.58,0.58 0 0 0 -0.43,-0.02l-0.01,0z" fill="#FF7626" id="svg_32"/>
   <path d="m299.86,409.42c-0.9,0 -1.77,-0.13 -2.06,-0.53a0.63,0.63 0 0 1 0,-0.73a0.83,0.83 0 0 1 0.53,-0.39c1.17,-0.32 3.63,1.08 3.73,1.14a0.15,0.15 0 0 1 0.08,0.17a0.16,0.16 0 0 1 -0.13,0.14a12.2,12.2 0 0 1 -2.15,0.2zm-1.11,-1.37a1,1 0 0 0 -0.32,0a0.51,0.51 0 0 0 -0.33,0.23c-0.12,0.21 -0.07,0.31 0,0.37c0.33,0.46 2.1,0.47 3.41,0.28a7.61,7.61 0 0 0 -2.76,-0.88z" fill="#FF7626" id="svg_33"/>
   <path d="m302,409.22l-0.07,0c-0.85,-0.38 -2.53,-1.9 -2.4,-2.7c0,-0.19 0.16,-0.42 0.62,-0.46a1.2,1.2 0 0 1 0.92,0.28a4.78,4.78 0 0 1 1.1,2.71a0.2,0.2 0 0 1 -0.07,0.15a0.19,0.19 0 0 1 -0.1,0.02zm-1.72,-2.85l-0.1,0c-0.3,0 -0.32,0.14 -0.32,0.18c-0.08,0.48 1.06,1.68 1.93,2.2a3.87,3.87 0 0 0 -0.93,-2.17a0.88,0.88 0 0 0 -0.59,-0.21l0.01,0z" fill="#FF7626" id="svg_34"/>
   <polygon fill="#ff8b7b" id="svg_35" points="309.72 409.06 302.69 409.06 301.99 392.77 309.02 392.77 309.72 409.06"/>
   <polygon fill="#ff8b7b" id="svg_36" points="361.35 405.8 354.48 407.29 347.57 392.12 354.45 390.63 361.35 405.8"/>
   <path d="m353.81,406.6l7.73,-1.67a0.61,0.61 0 0 1 0.68,0.34l2.68,5.82a1,1 0 0 1 -0.74,1.44c-2.7,0.53 -4.05,0.66 -7.44,1.39c-2.09,0.46 -6.81,1.61 -9.7,2.23s-3.88,-2.15 -2.75,-2.66c5.05,-2.31 7.15,-4.34 8.52,-6.23a1.71,1.71 0 0 1 1.02,-0.66z" fill="#263238" id="svg_37"/>
   <path d="m302.74,408.24l7.68,0a0.62,0.62 0 0 1 0.6,0.48l1.39,6.25a1,1 0 0 1 -1,1.26c-2.77,-0.05 -6.77,-0.21 -10.25,-0.21c-4.08,0 -7.59,0.22 -12.37,0.22c-2.89,0 -3.69,-2.92 -2.48,-3.19c5.5,-1.2 10,-1.33 14.75,-4.26a3.27,3.27 0 0 1 1.68,-0.55z" fill="#263238" id="svg_38"/>
   <path d="m331.17,169c6.59,1.51 12,18.34 12,18.34l-13.17,10.07a28.93,28.93 0 0 1 -7,-13c-2.33,-8.82 1.43,-16.97 8.17,-15.41z" fill="#FF7626" id="svg_39"/>
   <path d="m331.17,169c6.59,1.51 12,18.34 12,18.34l-13.17,10.07a28.93,28.93 0 0 1 -7,-13c-2.33,-8.82 1.43,-16.97 8.17,-15.41z" id="svg_40" opacity="0.4"/>
   <path d="m296.5,189.07c-1.64,1.77 -3.28,3.35 -5,5c-0.85,0.8 -1.71,1.6 -2.59,2.37l-1.33,1.17l-0.33,0.29l-0.57,0.46a8,8 0 0 1 -1.93,1.14a6.29,6.29 0 0 1 -2.44,0.5a6,6 0 0 1 -2.1,-0.37a5.91,5.91 0 0 1 -2,-1.27a6,6 0 0 1 -1.56,-2.59a6.81,6.81 0 0 1 -0.29,-1.49a10.1,10.1 0 0 1 0,-1.78c0.05,-0.48 0.11,-0.9 0.19,-1.29a24.76,24.76 0 0 1 1.16,-4a35.81,35.81 0 0 1 1.55,-3.62c0.64,-1.27 1.25,-2.2 1.86,-3.26a81.65,81.65 0 0 1 8.45,-11.46a77.42,77.42 0 0 1 10.25,-9.72l3.68,3.79c-2.58,3.46 -5.12,7.17 -7.47,10.82a117.26,117.26 0 0 0 -6.4,11.25c-0.43,0.94 -1,2 -1.27,2.76a26.83,26.83 0 0 0 -0.93,2.7a17.45,17.45 0 0 0 -0.57,2.52a3.94,3.94 0 0 0 0,0.4c0,0.08 0,0.12 0,-0.09a2.78,2.78 0 0 0 -0.13,-0.66a4.29,4.29 0 0 0 -1.15,-1.86a4.9,4.9 0 0 0 -1.65,-1a4.78,4.78 0 0 0 -1.68,-0.31a4.08,4.08 0 0 0 -1.61,0.31a3.68,3.68 0 0 0 -0.5,0.25l0.38,-0.35l1.21,-1.1l2.39,-2.24c1.58,-1.49 3.17,-3.08 4.67,-4.56l7.71,7.29z" fill="#ff8b7b" id="svg_41"/>
   <path d="m325.52,181.36c3.58,3.54 4.75,10 5,15.6l-0.58,0.45a28.93,28.93 0 0 1 -7,-13c-0.13,-0.52 -0.25,-1 -0.34,-1.57l2.92,-1.48z" id="svg_42" opacity="0.2"/>
   <path d="m289.51,176c-1.44,7.6 -2.34,23.21 1.83,54.11l37.66,0c0.26,-5.77 -3.37,-33.95 2.2,-61.16a99,99 0 0 0 -12.6,-1.59a139.73,139.73 0 0 0 -16,0c-1.76,0.16 -3.5,0.42 -5,0.69a10,10 0 0 0 -8.09,7.95z" fill="#FF7626" id="svg_43"/>
   <path d="m289.51,176c-1.44,7.6 -2.34,23.21 1.83,54.11l37.66,0c0.26,-5.77 -3.37,-33.95 2.2,-61.16a99,99 0 0 0 -12.6,-1.59a139.73,139.73 0 0 0 -16,0c-1.76,0.16 -3.5,0.42 -5,0.69a10,10 0 0 0 -8.09,7.95z" id="svg_44" opacity="0.4"/>
   <path d="m295.27,187.27l-6.8,-1.63c-0.21,4.12 -0.23,9.22 0.07,15.53c3.13,-3.56 7.13,-9.12 6.73,-13.9z" id="svg_45" opacity="0.2"/>
   <polygon id="svg_46" opacity="0.2" points="301.99 392.77 302.35 401.17 309.39 401.17 309.03 392.77 301.99 392.77"/>
   <polygon id="svg_47" opacity="0.2" points="354.45 390.63 347.57 392.12 351.13 399.94 358.01 398.45 354.45 390.63"/>
   <path d="m319.93,144.16c-1.8,6.74 -2.52,10.78 -6.68,13.58c-6.25,4.26 -14.05,-0.62 -14.25,-7.74c-0.22,-6.43 2.77,-16.38 10,-17.74a9.52,9.52 0 0 1 10.93,11.9z" fill="#ff8b7b" id="svg_48"/>
   <path d="m304.15,144.41c-0.34,-0.9 -1.89,-7.87 -0.43,-9.68s18.11,-0.5 20.57,1.92c4.09,4 1.25,7.6 -3.22,12.23c-3.36,3.48 -3.49,7.4 -5.19,8c-3,1 -7.58,0.06 -8.5,-3.11s-3.23,-9.36 -3.23,-9.36z" fill="#263238" id="svg_49"/>
   <path d="m322.27,128.72c-5.88,-2.5 -16.91,0.27 -22.87,-1.17a9.18,9.18 0 0 0 7.61,9.36a78.65,78.65 0 0 0 15,1.39c6.54,-0.3 5.26,-7.45 0.26,-9.58z" fill="#263238" id="svg_50"/>
   <path d="m323.19,136.86a11.21,11.21 0 0 0 6.23,-1.19c1.1,2.66 -4.95,3.39 -6.23,1.19z" fill="#263238" id="svg_51"/>
   <path d="m307.35,144.69a7.91,7.91 0 0 1 -2,4.67c-1.54,1.69 -3.14,0.63 -3.41,-1.42c-0.24,-1.86 0.26,-5 2.14,-5.9s3.4,0.56 3.27,2.65z" fill="#ff8b7b" id="svg_52"/>
   <path d="m304.69,230.14s8,53.75 12.37,73.89c4.79,22.05 30.53,95 30.53,95l12.59,-2.73s-18,-59.46 -22,-90.29c-3.1,-23.68 -9.19,-75.89 -9.19,-75.89l-24.3,0.02z" fill="#FF7626" id="svg_53"/>
   <path d="m344.57,394.84c-0.05,0 2.35,4.56 2.35,4.56l14.16,-3.07l-1.19,-4.26l-15.32,2.77z" fill="#263238" id="svg_54"/>
   <path d="m309.74,249.29c9.23,1.81 8.25,36.23 7.14,53.94c-2.66,-12.52 -6.56,-36.6 -9.22,-53.69a3.15,3.15 0 0 1 2.08,-0.25z" id="svg_55" opacity="0.3"/>
   <path d="m291.34,230.14s-1,52.59 -0.2,74c0.8,22.31 8.59,95.36 8.59,95.36l11.92,0s0.43,-71.75 1,-93.66c0.58,-23.88 3.46,-75.74 3.46,-75.74l-24.77,0.04z" fill="#FF7626" id="svg_56"/>
   <path d="m297.44,394.8c-0.06,0 0.67,4.94 0.67,4.94l14.49,0l0.4,-4.41l-15.56,-0.53z" fill="#263238" id="svg_57"/>
   <path d="m304.25,178.34c3.37,9.09 -16.44,19.8 -16.44,19.8l-8.58,-11s5.77,-11.42 12.77,-16.56c8.65,-6.34 9.68,0.84 12.25,7.76z" fill="#FF7626" id="svg_58"/>
   <path d="m304.25,178.34c3.37,9.09 -16.44,19.8 -16.44,19.8l-8.58,-11s5.77,-11.42 12.77,-16.56c8.65,-6.34 9.68,0.84 12.25,7.76z" id="svg_59" opacity="0.4"/>
  </g>
  <g id="freepik--Thinking--inject-3" transform="matrix(1 0 0 1 0 0)">
   <ellipse cx="385.87" cy="105.33" fill="#FF7626" id="svg_60" rx="36.09" ry="23"/>
   <path d="m372.85,116.91a10.11,10.11 0 0 1 -9.93,-8.39a10.22,10.22 0 0 1 7.71,-11.52l0,0a10.06,10.06 0 0 1 10.82,4.52l23.17,-4.78a3.62,3.62 0 0 1 4.24,2.49a3.49,3.49 0 0 1 -2.67,4.31l-0.6,0.12a0.59,0.59 0 0 0 -0.42,0.31a0.63,0.63 0 0 0 0,0.52l0.41,1.06a1.59,1.59 0 0 1 -0.62,1.93a1.9,1.9 0 0 0 -0.89,1.41a1.57,1.57 0 0 1 -1.21,1.39l-0.47,0.1a1.56,1.56 0 0 1 -1.66,-0.8a1.95,1.95 0 0 0 -3.61,0.75a1.55,1.55 0 0 1 -1.2,1.38l-0.47,0.1a1.57,1.57 0 0 1 -1.66,-0.8a2,2 0 0 0 -1.39,-0.94a1.59,1.59 0 0 1 -1.4,-1.57l0,-1.14a0.62,0.62 0 0 0 -0.74,-0.58l-7.39,1.52a10.07,10.07 0 0 1 -7.95,8.4a10.36,10.36 0 0 1 -2.07,0.21zm-2,-19a9.21,9.21 0 0 0 -7,10.42a9.11,9.11 0 0 0 18,-0.52l0,-0.36l8.15,-1.65a1.62,1.62 0 0 1 2,1.52l0,1.14a0.59,0.59 0 0 0 0.48,0.57a2.91,2.91 0 0 1 2.11,1.43a0.58,0.58 0 0 0 0.59,0.32l0.46,-0.1a0.56,0.56 0 0 0 0.42,-0.52a2.95,2.95 0 0 1 5.5,-1.16a0.57,0.57 0 0 0 0.58,0.32l0.48,-0.1a0.56,0.56 0 0 0 0.41,-0.52a2.9,2.9 0 0 1 1.37,-2.15a0.61,0.61 0 0 0 0.21,-0.72l-0.41,-1.06a1.61,1.61 0 0 1 1.18,-2.16l0.61,-0.13a2.51,2.51 0 0 0 1.91,-3.07a2.61,2.61 0 0 0 -3.08,-1.77l-23.82,4.95l-0.18,-0.31a9,9 0 0 0 -9.92,-4.35l-0.05,-0.02zm2,15.28a6.41,6.41 0 0 1 -3.51,-1a6.41,6.41 0 1 1 4.81,0.92l0,0a6.37,6.37 0 0 1 -1.29,0.1l-0.01,-0.02zm0,-11.81a6,6 0 0 0 -1.11,0.11a5.41,5.41 0 0 0 2.26,10.61l0,0a5.41,5.41 0 0 0 1.88,-9.81a5.32,5.32 0 0 0 -2.99,-0.89l-0.04,-0.02z" fill="#fff" id="svg_61"/>
   <ellipse cx="356.5" cy="134.26" fill="#FF7626" id="svg_62" opacity="0.6" rx="11.86" ry="7.56"/>
   <ellipse cx="337.63" cy="141.82" fill="#FF7626" id="svg_63" opacity="0.3" rx="4.87" ry="3.1"/>
  </g>
 </g>
</svg>