<?xml version="1.0"?>
<svg width="500" height="500" xmlns="http://www.w3.org/2000/svg" xmlns:svg="http://www.w3.org/2000/svg">
 <g class="layer">
  <title>Layer 1</title>
  <g id="freepik--background-complete--inject-118">
   <rect fill="#ebebeb" height="0.25" id="svg_1" width="33.12" x="416.78" y="398.49"/>
   <rect fill="#ebebeb" height="0.25" id="svg_2" width="8.69" x="322.53" y="401.21"/>
   <rect fill="#ebebeb" height="0.25" id="svg_3" width="19.19" x="396.59" y="389.21"/>
   <rect fill="#ebebeb" height="0.25" id="svg_4" width="43.19" x="52.46" y="390.89"/>
   <rect fill="#ebebeb" height="0.25" id="svg_5" width="6.33" x="104.56" y="390.89"/>
   <rect fill="#ebebeb" height="0.25" id="svg_6" width="93.68" x="131.47" y="395.11"/>
   <path d="m238.4,337.8l-193.1,0a5.71,5.71 0 0 1 -5.71,-5.71l0,-271.43a5.71,5.71 0 0 1 5.71,-5.66l193.1,0a5.71,5.71 0 0 1 5.71,5.71l0,271.38a5.71,5.71 0 0 1 -5.71,5.71zm-193.1,-282.6a5.47,5.47 0 0 0 -5.46,5.46l0,271.43a5.47,5.47 0 0 0 5.46,5.46l193.1,0a5.47,5.47 0 0 0 5.46,-5.46l0,-271.43a5.47,5.47 0 0 0 -5.46,-5.46l-193.1,0z" fill="#ebebeb" id="svg_7"/>
   <path d="m454.7,337.8l-193.1,0a5.71,5.71 0 0 1 -5.71,-5.71l0,-271.43a5.71,5.71 0 0 1 5.71,-5.66l193.1,0a5.71,5.71 0 0 1 5.71,5.71l0,271.38a5.71,5.71 0 0 1 -5.71,5.71zm-193.1,-282.6a5.47,5.47 0 0 0 -5.46,5.46l0,271.43a5.47,5.47 0 0 0 5.46,5.46l193.1,0a5.47,5.47 0 0 0 5.46,-5.46l0,-271.43a5.47,5.47 0 0 0 -5.46,-5.46l-193.1,0z" fill="#ebebeb" id="svg_8"/>
   <rect fill="#ebebeb" height="0.25" id="svg_9" width="500" y="382.4"/>
   <path d="m119.33,314.75c-0.84,-9.66 -10.7,-13.27 -22.39,-12.25s-20.76,6.29 -19.94,15.95l42.33,-3.7z" fill="#f0f0f0" id="svg_10"/>
   <path d="m96.56,298.09c5.42,-0.48 7.15,-5.06 6.68,-10.48s-3,-9.63 -8.4,-9.16s-7.15,5.06 -6.68,10.48s2.98,9.63 8.4,9.16z" fill="#f0f0f0" id="svg_11"/>
   <path d="m340.1,109a5.44,5.44 0 1 1 -5.89,-4.94a5.44,5.44 0 0 1 5.89,4.94z" fill="#f5f5f5" id="svg_12"/>
   <path d="m370.17,106.34a5.43,5.43 0 1 1 -5.88,-4.94a5.44,5.44 0 0 1 5.88,4.94z" fill="#f5f5f5" id="svg_13"/>
   <path d="m400.25,103.71a5.44,5.44 0 1 1 -5.89,-4.94a5.44,5.44 0 0 1 5.89,4.94z" fill="#f5f5f5" id="svg_14"/>
   <path d="m342.78,139.62a5.44,5.44 0 1 1 -5.89,-4.94a5.44,5.44 0 0 1 5.89,4.94z" fill="#f5f5f5" id="svg_15"/>
   <path d="m372.85,137a5.43,5.43 0 1 1 -5.88,-4.94a5.43,5.43 0 0 1 5.88,4.94z" fill="#f5f5f5" id="svg_16"/>
   <path d="m402.93,134.36a5.44,5.44 0 1 1 -5.89,-4.94a5.44,5.44 0 0 1 5.89,4.94z" fill="#f5f5f5" id="svg_17"/>
   <path d="m345.46,170.28a5.43,5.43 0 1 1 -5.88,-4.94a5.42,5.42 0 0 1 5.88,4.94z" fill="#f5f5f5" id="svg_18"/>
   <path d="m375.54,167.64a5.44,5.44 0 1 1 -5.89,-4.94a5.44,5.44 0 0 1 5.89,4.94z" fill="#f5f5f5" id="svg_19"/>
   <path d="m405.61,165a5.44,5.44 0 1 1 -5.89,-4.94a5.44,5.44 0 0 1 5.89,4.94z" fill="#f5f5f5" id="svg_20"/>
   <path d="m399.11,166.78l-61.78,5.4l54.78,-66.56l-56.11,4.91a1.18,1.18 0 0 1 -1.29,-1.09l0,0a1.19,1.19 0 0 1 1.08,-1.29l61.79,-5.4l-54.79,66.56l56.13,-4.91a1.21,1.21 0 0 1 1.3,1.09l0,0a1.2,1.2 0 0 1 -1.11,1.29z" fill="#e6e6e6" id="svg_21"/>
   <path d="m400.06,285.61a1.56,1.56 0 0 0 -1.35,-1.07a10.78,10.78 0 0 1 -7.13,-3.15c-2.47,-2.49 -3.92,-6.26 -4.16,-10.74a1.59,1.59 0 0 0 -1.58,-1.5l0,0a1.62,1.62 0 0 0 -1.61,1.7c0.28,5.26 2.06,9.76 5.09,12.79a14,14 0 0 0 8.87,4.07l0.23,0a1.6,1.6 0 0 0 1.64,-2.1z" fill="#f0f0f0" id="svg_22"/>
   <path d="m396.86,304.8c-13.25,-1.16 -22.81,-10.19 -25.83,-24.29a1.61,1.61 0 0 1 1.28,-1.94l0,0a1.6,1.6 0 0 1 1.84,1.22c2.71,12.67 11.21,20.79 23,21.82c12.92,1.13 26.79,-7.37 29.28,-28.79a1.6,1.6 0 0 1 1.73,-1.43l0,0a1.59,1.59 0 0 1 1.45,1.76c-2.39,20.2 -15.67,33.14 -32.75,31.65z" fill="#f0f0f0" id="svg_23"/>
   <path d="m371.86,266.46l0,0a1.59,1.59 0 0 1 -1.45,-1.76c2.38,-20.2 15.66,-33.15 32.73,-31.65c15,1.31 25.05,12.51 26.62,29.38a1.6,1.6 0 0 1 -1.5,1.72l0,0a1.61,1.61 0 0 1 -1.68,-1.48c-1.45,-15.2 -10.42,-25.27 -23.71,-26.43c-12.87,-1.13 -26.8,7.36 -29.28,28.76a1.6,1.6 0 0 1 -1.73,1.46z" fill="#f0f0f0" id="svg_24"/>
   <path d="m397.51,296.23a21.67,21.67 0 0 1 -6.89,-1.72a1.61,1.61 0 0 1 -0.77,-2.24l0,0a1.58,1.58 0 0 1 2,-0.7a19,19 0 0 0 6.58,1.52c9.79,0.56 20.13,-6.38 21.15,-23.14c0.62,-10.33 -2.92,-18.67 -9.52,-22.66a1.6,1.6 0 0 1 -0.61,-2.07l0,0a1.62,1.62 0 0 1 2.27,-0.67c7.65,4.62 11.75,14 11.05,25.59c-1,16.16 -11.06,26.92 -24.53,26.15l-0.73,-0.06z" fill="#f0f0f0" id="svg_25"/>
   <path d="m383.27,286.26a1.62,1.62 0 0 1 -2.31,-0.53a32.36,32.36 0 0 1 -3.75,-18c0.94,-15.47 10.21,-26 22.8,-26.18a1.61,1.61 0 0 1 1.64,1.7l0,0a1.6,1.6 0 0 1 -1.56,1.5c-9.34,0.18 -18.72,7.24 -19.68,23.17a29.16,29.16 0 0 0 3.34,16.26a1.58,1.58 0 0 1 -0.48,2.1l0,-0.02z" fill="#f0f0f0" id="svg_26"/>
   <path d="m405.13,285l0,0a1.6,1.6 0 0 1 0.65,-2c4.21,-2.53 6.79,-7.84 6.83,-14.25c0,-5.13 -1.45,-9.47 -4.19,-12.22a11,11 0 0 0 -8.11,-3.18c-4.93,0 -8.93,2.71 -11.14,7.47a1.59,1.59 0 0 1 -2,0.81l0,0a1.61,1.61 0 0 1 -0.9,-2.19c2.74,-5.83 7.87,-9.28 14,-9.29a14.24,14.24 0 0 1 10.39,4.12c3.35,3.36 5.17,8.51 5.13,14.51c-0.06,7.55 -3.24,13.89 -8.42,17a1.6,1.6 0 0 1 -2.24,-0.78z" fill="#f0f0f0" id="svg_27"/>
   <path d="m393.61,273.19a1.6,1.6 0 0 1 -2.16,-1.11c-0.11,-0.43 -0.19,-0.88 -0.26,-1.34c-0.91,-6 2.31,-11.19 7.48,-12.12a7.89,7.89 0 0 1 6.87,1.77a1.55,1.55 0 0 1 -0.13,2.42l-0.1,0.07a1.59,1.59 0 0 1 -2,-0.15a4.74,4.74 0 0 0 -4.11,-1c-3.94,0.71 -5.44,4.81 -4.88,8.49c0.06,0.36 0.12,0.71 0.21,1a1.61,1.61 0 0 1 -0.95,1.89l0.03,0.08z" fill="#f0f0f0" id="svg_28"/>
   <path d="m398.9,279.35l0,0a1.49,1.49 0 0 1 -1.12,-2.27l0.14,-0.22a1.48,1.48 0 0 1 1.37,-0.69a6.43,6.43 0 0 0 1.5,-0.09c3.44,-0.62 5,-3.82 5,-7.08a1.62,1.62 0 0 1 1.36,-1.64l0,0a1.6,1.6 0 0 1 1.84,1.51c0.09,5.22 -3,9.53 -7.63,10.36a9.21,9.21 0 0 1 -2.46,0.12z" fill="#f0f0f0" id="svg_29"/>
   <path d="m399.61,273.44a3.88,3.88 0 0 1 -3.44,-2.93a1.44,1.44 0 0 1 1.51,-1.79l0.37,0a1.45,1.45 0 0 1 1.23,1a0.69,0.69 0 0 0 0.61,0.52c0.77,0.07 0.9,-1 0.92,-1.26a1.93,1.93 0 0 0 -0.21,-1.13a1.75,1.75 0 0 1 -0.4,-1.19l0,0a1.6,1.6 0 0 1 2.83,-0.89a4.77,4.77 0 0 1 1,3.49c-0.26,2.63 -2.11,4.38 -4.42,4.18z" fill="#f0f0f0" id="svg_30"/>
   <path d="m369.53,237.65l0,0a1.59,1.59 0 0 1 -1.45,-1.73l1.21,-13.87l13.87,1.22a1.59,1.59 0 0 1 1.45,1.73l0,0a1.6,1.6 0 0 1 -1.73,1.46l-10.68,-0.94l-0.93,10.68a1.6,1.6 0 0 1 -1.74,1.45z" fill="#f0f0f0" id="svg_31"/>
   <path d="m435.46,243.42l0,0a1.59,1.59 0 0 1 -1.45,-1.73l0.93,-10.68l-10.68,-0.93a1.6,1.6 0 0 1 -1.45,-1.74l0,0a1.59,1.59 0 0 1 1.73,-1.45l13.87,1.21l-1.21,13.9a1.6,1.6 0 0 1 -1.74,1.42z" fill="#f0f0f0" id="svg_32"/>
   <path d="m430.55,318l-13.87,-1.21a1.6,1.6 0 0 1 -1.45,-1.74l0,0a1.59,1.59 0 0 1 1.73,-1.45l10.68,0.93l0.93,-10.67a1.6,1.6 0 0 1 1.74,-1.46l0,0a1.59,1.59 0 0 1 1.45,1.73l-1.21,13.87z" fill="#f0f0f0" id="svg_33"/>
   <path d="m375.3,313.14l-13.87,-1.22l1.21,-13.86a1.62,1.62 0 0 1 1.74,-1.46l0,0a1.6,1.6 0 0 1 1.45,1.74l-0.93,10.66l10.67,0.94a1.6,1.6 0 0 1 1.46,1.73l0,0a1.61,1.61 0 0 1 -1.73,1.47z" fill="#f0f0f0" id="svg_34"/>
   <path d="m74.73,283.13l0,0a1,1 0 0 1 -1.07,-0.9l-0.74,-8.52l8.52,-0.75a1,1 0 0 1 1.07,0.9l0,0a1,1 0 0 1 -0.9,1.06l-6.56,0.58l0.57,6.56a1,1 0 0 1 -0.89,1.07z" fill="#e0e0e0" id="svg_35"/>
   <path d="m115.27,279.58l0,0a1,1 0 0 1 -1.07,-0.89l-0.57,-6.57l-6.57,0.58a1,1 0 0 1 -1.07,-0.9l0,0a1,1 0 0 1 0.9,-1.07l8.52,-0.74l0.75,8.52a1,1 0 0 1 -0.89,1.07z" fill="#e0e0e0" id="svg_36"/>
   <path d="m119.47,316.29l-8.53,0.75a1,1 0 0 1 -1.07,-0.9l0,0a1,1 0 0 1 0.9,-1.07l6.56,-0.57l-0.57,-6.56a1,1 0 0 1 0.89,-1.07l0,0a1,1 0 0 1 1.07,0.89l0.75,8.53z" fill="#e0e0e0" id="svg_37"/>
   <path d="m85.49,319.26l-8.49,0.74l-0.75,-8.53a1,1 0 0 1 0.9,-1.06l0,0a1,1 0 0 1 1.06,0.89l0.58,6.57l6.56,-0.58a1,1 0 0 1 1.07,0.9l0,0a1,1 0 0 1 -0.93,1.07z" fill="#e0e0e0" id="svg_38"/>
   <path d="m114.58,141l-32.58,2.8l-0.67,-7.63a14.43,14.43 0 0 1 28.67,-2.52l0.38,4.44l4.71,-0.41l-0.39,-4.44a19.14,19.14 0 1 0 -38.14,3.34l0.67,7.68a7.66,7.66 0 0 0 -6.16,8.18l2.33,26.64a7.66,7.66 0 0 0 8.3,7l36.53,-3.19a7.66,7.66 0 0 0 7,-8.3l-2.33,-26.64a7.66,7.66 0 0 0 -8.32,-6.95zm-13.86,20.53l0.8,9.17a2.74,2.74 0 1 1 -5.45,0.48l-0.8,-9.18a4.6,4.6 0 1 1 5.45,-0.47z" fill="#ebebeb" id="svg_39"/>
   <path d="m170.44,156.39l-3.29,-5.39a17.73,17.73 0 0 1 -5,0l-3.3,5.37l-0.63,-0.17a24.43,24.43 0 0 1 -6.1,-2.53l-0.56,-0.32l1.39,-5.84a0.88,0.88 0 0 1 1.07,-0.65l0,0a0.88,0.88 0 0 1 0.65,1.06l-1.1,4.55a23.2,23.2 0 0 0 4.47,1.86l3.22,-5.26l0.59,0.1a17.78,17.78 0 0 0 5.64,0l0.58,-0.1l3.22,5.26a22.69,22.69 0 0 0 4.47,-1.86l-1.43,-6l0.48,-0.35a17.56,17.56 0 0 0 3.47,-3.31a0.88,0.88 0 0 1 1.21,-0.18l0,0a0.87,0.87 0 0 1 0.19,1.25a19.26,19.26 0 0 1 -3.37,3.32l1.47,6.13l-0.57,0.32a24.52,24.52 0 0 1 -6.09,2.53l-0.68,0.21zm-20.22,-11.74c-0.27,-0.31 -0.54,-0.64 -0.8,-1l-6.13,1.47l-0.33,-0.56a25.2,25.2 0 0 1 -2.53,-6.1l-0.16,-0.63l5.37,-3.3a17.73,17.73 0 0 1 0,-5l-5.37,-3.29l0.16,-0.64a25.13,25.13 0 0 1 2.53,-6.09l0.33,-0.57l6.13,1.47a19,19 0 0 1 3.56,-3.56l-1.11,-4.64a0.88,0.88 0 0 1 0.65,-1.06l0,0a0.87,0.87 0 0 1 1.05,0.65l1.39,5.78l-0.48,0.34a17.57,17.57 0 0 0 -4,4l-0.35,0.48l-6,-1.43a22.69,22.69 0 0 0 -1.86,4.47l5.25,3.22l-0.09,0.58a16,16 0 0 0 0,5.64l0.09,0.59l-5.25,3.22a22.85,22.85 0 0 0 1.86,4.46l6,-1.43l0.35,0.48a16.14,16.14 0 0 0 1,1.31a0.87,0.87 0 0 1 0,1.2l0,0a0.87,0.87 0 0 1 -1.26,-0.06zm35.74,0.49l-2.26,-0.54a0.88,0.88 0 0 1 -0.65,-1.06l0,0a0.88,0.88 0 0 1 1.06,-0.65l1,0.23a22.82,22.82 0 0 0 1.85,-4.46l-5.25,-3.22l0.1,-0.59a16,16 0 0 0 0,-5.64l-0.1,-0.58l5.25,-3.22a22.65,22.65 0 0 0 -1.85,-4.47l-6,1.43l-0.34,-0.48a17.77,17.77 0 0 0 -4,-4l-0.48,-0.34l1.43,-6a22.65,22.65 0 0 0 -4.47,-1.85l-3.25,5.3l-0.58,-0.1a17.78,17.78 0 0 0 -5.64,0l-0.59,0.1l-3.19,-5.28l-0.6,0.18a0.86,0.86 0 0 1 -1.08,-0.53l0,0a0.88,0.88 0 0 1 0.53,-1.14c0.44,-0.14 0.89,-0.27 1.33,-0.39l0.63,-0.17l3.3,5.38a17,17 0 0 1 5,0l3.29,-5.38l0.64,0.17a24.9,24.9 0 0 1 6.09,2.53l0.57,0.33l-1.47,6.13a18.75,18.75 0 0 1 3.56,3.56l6.13,-1.47l0.33,0.57a24.74,24.74 0 0 1 2.53,6.09l0.17,0.64l-5.38,3.29a16.81,16.81 0 0 1 0,5l5.38,3.3l-0.17,0.63a24.81,24.81 0 0 1 -2.53,6.1l-0.29,0.6zm-21.58,-4.54a8.67,8.67 0 0 1 -8.32,-8.32a8.58,8.58 0 0 1 7.58,-8.76a0.89,0.89 0 0 1 1,0.88l0,0a0.87,0.87 0 0 1 -0.77,0.86a6.81,6.81 0 1 0 6.35,2.86a0.85,0.85 0 0 1 0.14,-1.14l0,0a0.88,0.88 0 0 1 1.31,0.16a8.56,8.56 0 0 1 -7.28,13.46l-0.01,0z" fill="#f0f0f0" id="svg_40"/>
   <path d="m108.31,229.59l-2.13,-3.47a11.06,11.06 0 0 1 -3.25,0l-2.13,3.47l-0.41,-0.11a15.92,15.92 0 0 1 -3.94,-1.63l-0.36,-0.21l0.9,-3.78a0.57,0.57 0 0 1 0.68,-0.42l0,0a0.57,0.57 0 0 1 0.42,0.69l-0.7,2.94a14.57,14.57 0 0 0 2.89,1.2l2.08,-3.39l0.37,0.06a11.18,11.18 0 0 0 3.65,0l0.37,-0.06l2.09,3.39a15.38,15.38 0 0 0 2.88,-1.2l-0.92,-3.86l0.31,-0.23a11.3,11.3 0 0 0 2.24,-2.13a0.56,0.56 0 0 1 0.78,-0.12l0,0a0.57,0.57 0 0 1 0.13,0.8a12.67,12.67 0 0 1 -2.18,2.15l1,4l-0.37,0.21a15.77,15.77 0 0 1 -3.94,1.63l-0.46,0.07zm-13.06,-7.59l-0.52,-0.63l-4,0.94l-0.21,-0.36a15.92,15.92 0 0 1 -1.59,-3.95l-0.11,-0.41l3.47,-2.13a11.06,11.06 0 0 1 0,-3.25l-3.47,-2.13l0.11,-0.41a15.77,15.77 0 0 1 1.63,-3.94l0.21,-0.37l4,1a13.18,13.18 0 0 1 2.23,-2.36l-0.71,-3a0.56,0.56 0 0 1 0.42,-0.68l0,0a0.57,0.57 0 0 1 0.68,0.42l0.9,3.73l-0.32,0.23a11.19,11.19 0 0 0 -2.57,2.57l-0.23,0.31l-3.86,-0.92a15.38,15.38 0 0 0 -1.2,2.88l3.39,2.08l-0.06,0.38a11.13,11.13 0 0 0 -0.16,1.82a11.24,11.24 0 0 0 0.16,1.83l0.06,0.37l-3.39,2.08a15.19,15.19 0 0 0 1.2,2.89l3.86,-0.93l0.23,0.31a9.28,9.28 0 0 0 0.67,0.85a0.56,0.56 0 0 1 0,0.77l0,0a0.56,0.56 0 0 1 -0.82,0.01zm23.09,0.31l-1.46,-0.34a0.57,0.57 0 0 1 -0.42,-0.69l0,0a0.56,0.56 0 0 1 0.68,-0.42l0.63,0.15a14.57,14.57 0 0 0 1.2,-2.89l-3.39,-2.08l0.06,-0.37a11.24,11.24 0 0 0 0.16,-1.83a11.13,11.13 0 0 0 -0.16,-1.82l-0.06,-0.38l3.39,-2.08a14.74,14.74 0 0 0 -1.2,-2.88l-3.86,0.92l-0.23,-0.31a11.19,11.19 0 0 0 -2.57,-2.57l-0.31,-0.23l0.92,-3.86a14.74,14.74 0 0 0 -2.88,-1.2l-2.09,3.39l-0.37,-0.06a11.18,11.18 0 0 0 -3.65,0l-0.37,0.06l-2.08,-3.39l-0.39,0.12a0.56,0.56 0 0 1 -0.7,-0.35l0,0a0.56,0.56 0 0 1 0.34,-0.73l0.86,-0.26l0.41,-0.1l2.13,3.47a11.06,11.06 0 0 1 3.25,0l2.13,-3.47l0.41,0.1a16.18,16.18 0 0 1 3.94,1.64l0.37,0.21l-1,4a12.84,12.84 0 0 1 2.3,2.3l4,-1l0.21,0.37a15.77,15.77 0 0 1 1.63,3.94l0.11,0.41l-3.47,2.13a11.06,11.06 0 0 1 0,3.25l3.47,2.13l-0.11,0.41a15.92,15.92 0 0 1 -1.63,3.94l-0.2,0.37zm-13.94,-2.93a5.54,5.54 0 0 1 -0.48,-11a0.58,0.58 0 0 1 0.64,0.57l0,0a0.56,0.56 0 0 1 -0.5,0.56a4.4,4.4 0 1 0 4.9,4.37a4.34,4.34 0 0 0 -0.8,-2.52a0.57,0.57 0 0 1 0.09,-0.74l0,0a0.57,0.57 0 0 1 0.85,0.1a5.54,5.54 0 0 1 -4.7,8.7l0,-0.04z" fill="#e6e6e6" id="svg_41"/>
  </g>
  <g id="freepik--Shadow--inject-118">
   <ellipse cx="250" cy="415.69" fill="#f5f5f5" id="freepik--path--inject-118" rx="193.89" ry="11.32"/>
  </g>
  <g id="freepik--Device--inject-118">
   <path d="m363.45,145.83l-32.56,0l-23,263.25l32.56,0a18.72,18.72 0 0 0 18.26,-16.8l20.09,-229.66a15.15,15.15 0 0 0 -15.35,-16.79z" fill="#F7921E" id="svg_42"/>
   <path d="m356.81,145.83l-110.2,0a18.72,18.72 0 0 0 -18.27,16.79l-20.09,229.66a15.17,15.17 0 0 0 15.33,16.8l110.19,0a18.73,18.73 0 0 0 18.23,-16.8l20.09,-229.66a15.15,15.15 0 0 0 -15.28,-16.79z" fill="#F7921E" id="svg_43"/>
   <path d="m356.81,145.83l-110.2,0a18.72,18.72 0 0 0 -18.27,16.79l-20.09,229.66a15.17,15.17 0 0 0 15.33,16.8l110.19,0a18.73,18.73 0 0 0 18.23,-16.8l20.09,-229.66a15.15,15.15 0 0 0 -15.28,-16.79z" fill="#fff" id="svg_44" opacity="0.3"/>
   <path d="m356.34,151.21l-29.06,0a4.33,4.33 0 0 0 -4,2.76l0,0a16,16 0 0 1 -14.63,10.23l-17.14,0a12.87,12.87 0 0 1 -12.85,-10.2l0,0a3.47,3.47 0 0 0 -3.47,-2.76l-29.05,0a12.7,12.7 0 0 0 -12.41,11.41l-20.1,229.66a10.29,10.29 0 0 0 10.42,11.42l110.2,0a12.71,12.71 0 0 0 12.41,-11.42l20.09,-229.66a10.29,10.29 0 0 0 -10.41,-11.44z" fill="#fff" id="svg_45" opacity="0.4"/>
   <path d="m328.88,276l-77.12,0a3.74,3.74 0 0 1 -3.78,-4.14l0.39,-4.42a4.61,4.61 0 0 1 4.5,-4.14l77.13,0a3.74,3.74 0 0 1 3.78,4.14l-0.38,4.42a4.62,4.62 0 0 1 -4.52,4.14z" fill="#fff" id="svg_46"/>
   <path d="m327.22,295l-77.13,0a3.73,3.73 0 0 1 -3.77,-4.14l0.38,-4.42a4.62,4.62 0 0 1 4.5,-4.14l77.13,0a3.74,3.74 0 0 1 3.78,4.14l-0.39,4.42a4.62,4.62 0 0 1 -4.5,4.14z" fill="#fff" id="svg_47"/>
   <path d="m305.45,155.51a5.11,5.11 0 0 1 -5,4.59a4.14,4.14 0 0 1 -4.19,-4.59a5.11,5.11 0 0 1 5,-4.59a4.14,4.14 0 0 1 4.19,4.59z" id="svg_48" opacity="0.1"/>
   <path d="m303.37,155.51a2.8,2.8 0 0 1 -2.73,2.51a2.26,2.26 0 0 1 -2.29,-2.51a2.79,2.79 0 0 1 2.73,-2.51a2.27,2.27 0 0 1 2.29,2.51z" id="svg_49" opacity="0.1"/>
   <g id="svg_50" opacity="0.8">
    <path d="m342.77,163.17l0,0a1.22,1.22 0 0 1 -1.23,-1.35l0.22,-2.46a1.49,1.49 0 0 1 1.46,-1.34l0,0a1.22,1.22 0 0 1 1.23,1.34l-0.22,2.46a1.5,1.5 0 0 1 -1.46,1.35z" fill="#fff" id="svg_51"/>
    <path d="m353.53,163.17l0,0a1.22,1.22 0 0 1 -1.23,-1.35l0.51,-5.77a1.49,1.49 0 0 1 1.46,-1.34l0,0a1.22,1.22 0 0 1 1.23,1.34l-0.51,5.77a1.5,1.5 0 0 1 -1.46,1.35z" fill="#fff" id="svg_52"/>
    <path d="m348.15,163.17l0,0a1.22,1.22 0 0 1 -1.23,-1.35l0.36,-4.11a1.5,1.5 0 0 1 1.47,-1.35l0,0a1.21,1.21 0 0 1 1.22,1.35l-0.36,4.11a1.5,1.5 0 0 1 -1.46,1.35z" fill="#fff" id="svg_53"/>
   </g>
   <g id="svg_54" opacity="0.8">
    <path d="m250.64,163.17l-6.76,0a0.68,0.68 0 0 1 -0.69,-0.76l0.31,-3.63a0.85,0.85 0 0 1 0.83,-0.76l6.76,0a0.68,0.68 0 0 1 0.69,0.76l-0.32,3.63a0.83,0.83 0 0 1 -0.82,0.76z" fill="#fff" id="svg_55"/>
    <path d="m253.77,162.18l0,0a0.69,0.69 0 0 1 -0.7,-0.76l0.15,-1.66a0.84,0.84 0 0 1 0.83,-0.76l0,0a0.68,0.68 0 0 1 0.69,0.76l-0.14,1.66a0.85,0.85 0 0 1 -0.83,0.76z" fill="#fff" id="svg_56"/>
   </g>
   <ellipse cx="294.81" cy="224.63" fill="#fff" id="svg_57" rx="33.73" ry="30.9" transform="translate(-73.49 266.21) rotate(-43.75)"/>
   <path d="m294.92,223.38c-8.48,0 -15.65,3.23 -16.26,10.24l-0.68,7.79l30.73,0l0.68,-7.79c0.61,-7.01 -5.98,-10.24 -14.47,-10.24z" fill="#F7921E" id="svg_58"/>
   <path d="m295.2,220.17c3.94,0 5.76,-3.19 6.1,-7.13s-0.91,-7.13 -4.85,-7.13s-5.75,3.2 -6.1,7.13s0.91,7.13 4.85,7.13z" fill="#F7921E" id="svg_59"/>
   <path d="m325.36,269.38c-2.09,0 -3.86,0.8 -4,2.53l-0.17,1.93l7.59,0l0.17,-1.93c0.14,-1.73 -1.49,-2.53 -3.59,-2.53z" fill="#F7921E" id="svg_60"/>
   <path d="m325.43,268.59c1,0 1.42,-0.79 1.51,-1.76s-0.23,-1.76 -1.2,-1.76s-1.42,0.79 -1.51,1.76s0.23,1.76 1.2,1.76z" fill="#F7921E" id="svg_61"/>
   <path d="m302,314l-30,0a5.73,5.73 0 0 1 -5.8,-6.35l0,0a7.08,7.08 0 0 1 6.91,-6.35l30,0a5.74,5.74 0 0 1 5.8,6.35l0,0a7.07,7.07 0 0 1 -6.91,6.35z" fill="#F7921E" id="svg_62"/>
   <path d="m298.37,384.82l-32.11,0a6,6 0 0 1 -6.12,-6.71l2.05,-23.42a7.46,7.46 0 0 1 7.29,-6.71l32.12,0a6.05,6.05 0 0 1 6.12,6.71l-2.05,23.42a7.48,7.48 0 0 1 -7.3,6.71z" fill="#F7921E" id="svg_63"/>
   <g id="svg_64" opacity="0.6">
    <path d="m288.47,360.6a3.63,3.63 0 0 0 -3.68,-4a4.48,4.48 0 0 0 -4.39,4a3.65,3.65 0 0 0 1.35,3.23l-0.7,8.07a2.16,2.16 0 0 0 2.19,2.4a2.67,2.67 0 0 0 2.6,-2.4l0.71,-8.07a4.46,4.46 0 0 0 1.92,-3.23z" fill="#fff" id="svg_65"/>
   </g>
   <path d="m301.88,352.86l-4.14,0l1,-11.59a11.41,11.41 0 0 0 -11.53,-12.64a14.09,14.09 0 0 0 -13.74,12.64l-1,11.59l-4.14,0l1,-11.59a18.68,18.68 0 0 1 18.23,-16.77a15.14,15.14 0 0 1 15.31,16.77l-0.99,11.59z" fill="#F7921E" id="svg_66"/>
   <path d="m325.87,287.13l0.13,-1.13a1.87,1.87 0 0 0 -1.88,-2.06a2.3,2.3 0 0 0 -2.24,2.06l-0.1,1.11a0.92,0.92 0 0 0 -0.89,0.83l-0.26,3a0.73,0.73 0 0 0 0.75,0.82l4.12,0a0.91,0.91 0 0 0 0.89,-0.82l0.26,-3a0.75,0.75 0 0 0 -0.78,-0.81zm-1.87,-2.66a1.41,1.41 0 0 1 1.42,1.55l-0.1,1.11l-3.1,0l0.1,-1.11a1.73,1.73 0 0 1 1.68,-1.55z" fill="#F7921E" id="svg_67"/>
   <path d="m263.85,288.32l-1.44,-0.3a0.27,0.27 0 0 1 -0.19,-0.38l0.6,-1.42a0.28,0.28 0 0 0 -0.47,-0.29l-1.09,1.12a0.28,0.28 0 0 1 -0.44,0l-0.89,-1.12c-0.19,-0.24 -0.6,0 -0.53,0.29l0.35,1.42a0.31,0.31 0 0 1 -0.25,0.38l-1.49,0.3c-0.32,0.06 -0.36,0.51 -0.05,0.57l1.44,0.3a0.26,0.26 0 0 1 0.18,0.38l-0.58,1.43a0.28,0.28 0 0 0 0.47,0.29l1.09,-1.12a0.3,0.3 0 0 1 0.44,0l0.89,1.12c0.19,0.24 0.6,0 0.52,-0.29l-0.35,-1.42a0.33,0.33 0 0 1 0.26,-0.38l1.49,-0.3c0.31,-0.07 0.35,-0.52 0.04,-0.58z" fill="#263238" id="svg_68"/>
   <path d="m273.31,288.32l-1.44,-0.3a0.27,0.27 0 0 1 -0.19,-0.38l0.6,-1.42a0.28,0.28 0 0 0 -0.47,-0.29l-1.09,1.12a0.28,0.28 0 0 1 -0.44,0l-0.89,-1.12c-0.19,-0.24 -0.6,0 -0.52,0.29l0.35,1.42a0.32,0.32 0 0 1 -0.26,0.38l-1.49,0.3c-0.32,0.06 -0.36,0.51 -0.05,0.57l1.44,0.3a0.27,0.27 0 0 1 0.19,0.38l-0.6,1.42a0.28,0.28 0 0 0 0.47,0.29l1.09,-1.12a0.3,0.3 0 0 1 0.44,0l0.89,1.12c0.19,0.24 0.6,0 0.53,-0.29l-0.35,-1.42a0.32,0.32 0 0 1 0.25,-0.38l1.49,-0.3c0.32,-0.06 0.36,-0.51 0.05,-0.57z" fill="#263238" id="svg_69"/>
   <path d="m282.77,288.32l-1.43,-0.3a0.26,0.26 0 0 1 -0.19,-0.38l0.6,-1.42a0.28,0.28 0 0 0 -0.48,-0.29l-1.08,1.12a0.29,0.29 0 0 1 -0.45,0l-0.89,-1.12c-0.19,-0.24 -0.6,0 -0.52,0.29l0.35,1.42a0.32,0.32 0 0 1 -0.25,0.38l-1.49,0.3c-0.32,0.06 -0.36,0.51 -0.05,0.57l1.43,0.3a0.27,0.27 0 0 1 0.19,0.38l-0.6,1.42a0.28,0.28 0 0 0 0.48,0.29l1.08,-1.12a0.3,0.3 0 0 1 0.44,0l0.9,1.12c0.19,0.24 0.6,0 0.52,-0.29l-0.35,-1.42a0.33,0.33 0 0 1 0.25,-0.38l1.49,-0.3c0.28,-0.06 0.36,-0.51 0.05,-0.57z" fill="#263238" id="svg_70"/>
   <path d="m292.24,288.32l-1.44,-0.3a0.27,0.27 0 0 1 -0.19,-0.38l0.6,-1.42a0.28,0.28 0 0 0 -0.47,-0.29l-1.09,1.12a0.28,0.28 0 0 1 -0.44,0l-0.89,-1.12c-0.19,-0.24 -0.6,0 -0.53,0.29l0.35,1.42a0.31,0.31 0 0 1 -0.25,0.38l-1.49,0.3c-0.32,0.06 -0.36,0.51 0,0.57l1.44,0.3a0.26,0.26 0 0 1 0.18,0.38l-0.59,1.42a0.28,0.28 0 0 0 0.47,0.29l1.09,-1.12a0.3,0.3 0 0 1 0.44,0l0.89,1.12c0.19,0.24 0.6,0 0.52,-0.29l-0.35,-1.42a0.33,0.33 0 0 1 0.26,-0.38l1.49,-0.3c0.27,-0.06 0.31,-0.51 0,-0.57z" fill="#263238" id="svg_71"/>
   <path d="m301.7,288.32l-1.44,-0.3a0.27,0.27 0 0 1 -0.19,-0.38l0.6,-1.42a0.28,0.28 0 0 0 -0.47,-0.29l-1.09,1.12a0.28,0.28 0 0 1 -0.44,0l-0.89,-1.12c-0.19,-0.24 -0.6,0 -0.52,0.29l0.35,1.42a0.32,0.32 0 0 1 -0.26,0.38l-1.49,0.3c-0.32,0.06 -0.36,0.51 -0.05,0.57l1.44,0.3a0.27,0.27 0 0 1 0.19,0.38l-0.6,1.42a0.28,0.28 0 0 0 0.47,0.29l1.09,-1.12a0.3,0.3 0 0 1 0.44,0l0.89,1.12c0.19,0.24 0.6,0 0.53,-0.29l-0.35,-1.42a0.32,0.32 0 0 1 0.25,-0.38l1.49,-0.3c0.35,-0.06 0.35,-0.51 0.05,-0.57z" fill="#263238" id="svg_72"/>
   <path d="m311.16,288.32l-1.44,-0.3a0.26,0.26 0 0 1 -0.18,-0.38l0.6,-1.42a0.28,0.28 0 0 0 -0.48,-0.29l-1.08,1.12a0.29,0.29 0 0 1 -0.45,0l-0.89,-1.12c-0.19,-0.24 -0.6,0 -0.52,0.29l0.35,1.42a0.32,0.32 0 0 1 -0.25,0.38l-1.49,0.3c-0.32,0.06 -0.36,0.51 -0.05,0.57l1.43,0.3a0.27,0.27 0 0 1 0.19,0.38l-0.6,1.42a0.28,0.28 0 0 0 0.48,0.29l1.08,-1.12a0.3,0.3 0 0 1 0.44,0l0.89,1.12a0.31,0.31 0 0 0 0.53,-0.29l-0.35,-1.42a0.33,0.33 0 0 1 0.25,-0.38l1.49,-0.3c0.32,-0.06 0.36,-0.51 0.05,-0.57z" fill="#263238" id="svg_73"/>
   <path d="m288.35,267.61l-17.76,0a2.23,2.23 0 0 0 -2.18,2a1.8,1.8 0 0 0 1.83,2l17.76,0a2.23,2.23 0 0 0 2.18,-2a1.81,1.81 0 0 0 -1.83,-2z" fill="#263238" id="svg_74"/>
   <path d="m306.39,267.61l-10.31,0a2.22,2.22 0 0 0 -2.17,2a1.8,1.8 0 0 0 1.82,2l10.27,0a2.22,2.22 0 0 0 2.17,-2a1.8,1.8 0 0 0 -1.78,-2z" fill="#263238" id="svg_75"/>
   <path d="m320,358.26a45.29,45.29 0 0 0 -16.59,11a19.71,19.71 0 0 0 -9.73,-4l-0.47,-0.07l-0.2,2.36l0.26,0.1a18.33,18.33 0 0 1 9.33,7.68l0.34,0.56l0.37,-0.6a43.46,43.46 0 0 1 16.92,-15.56l0.23,-0.12l0.13,-1.56l-0.59,0.21z" fill="#263238" id="svg_76"/>
  </g>
  <g id="freepik--Character--inject-118">
   <path d="m203.89,193.14c2.56,2.79 5,5.68 7.43,8.59s4.78,5.88 7.12,8.86c0.1,0.13 0.06,0.08 0.08,0.12s0,0.05 0,0.06a0.36,0.36 0 0 0 0.07,0.1a1.12,1.12 0 0 0 0.73,0.46a1.27,1.27 0 0 0 0.34,0a1.15,1.15 0 0 0 0.18,0l0.09,0c0.05,0 0,0 0.16,-0.06l2.5,-1.36c3.36,-1.78 6.75,-3.52 10.25,-5.08l2.93,3.63c-2.82,2.59 -5.76,5.84 -8.73,8.22l-2.24,1.76a3.8,3.8 0 0 1 -0.44,0.31a5.1,5.1 0 0 1 -0.53,0.33a10.63,10.63 0 0 1 -1.12,0.56a9.86,9.86 0 0 1 -2.42,0.67a10.34,10.34 0 0 1 -5,-0.5a10,10 0 0 1 -2.3,-1.17c-0.36,-0.24 -0.7,-0.52 -1,-0.79c-0.17,-0.14 -0.31,-0.3 -0.47,-0.45l-0.4,-0.4c-2.65,-2.72 -5.26,-5.46 -7.82,-8.25s-5.09,-5.6 -7.51,-8.52l8.1,-7.09z" fill="#b55b52" id="svg_77"/>
   <path d="m231.52,207.03l2.33,-7.49l6.14,3.06s-0.9,5.46 -5.36,6.41l-3.11,-1.98z" fill="#b55b52" id="svg_78"/>
   <polygon fill="#b55b52" id="svg_79" points="236.29937553405762,197.4693784713745 241.8393840789795,198.9893674850464 239.97938346862793,202.59936809539795 233.8393840789795,199.5393705368042 236.29937553405762,197.4693784713745 "/>
   <path d="m171.61,195.18c-0.66,3.18 -1.48,6.33 -2.33,9.47s-1.78,6.25 -2.75,9.36l-0.36,1.17l-0.18,0.58a1.15,1.15 0 0 1 -0.1,0.24a3.34,3.34 0 0 0 -0.19,1a3.55,3.55 0 0 0 0.58,2.05a6.33,6.33 0 0 0 0.65,0.75l0.83,0.91l1.64,1.83c1.07,1.24 2.15,2.48 3.17,3.78l-3.49,4c-1.44,-0.82 -2.82,-1.71 -4.2,-2.59l-2.05,-1.36l-1,-0.69c-0.34,-0.24 -0.62,-0.4 -1.17,-0.85a11.65,11.65 0 0 1 -3.84,-6.45a12.43,12.43 0 0 1 -0.19,-3.9c0,-0.32 0.1,-0.68 0.15,-1l0.11,-0.6l0.21,-1.2c0.56,-3.21 1.16,-6.41 1.83,-9.59s1.39,-6.35 2.24,-9.48l10.44,2.57z" fill="#b55b52" id="svg_80"/>
   <path d="m169.15,226l4.12,-2.11l1.82,7s-3.31,1.27 -5.87,-0.36l-0.07,-4.53z" fill="#b55b52" id="svg_81"/>
   <polygon fill="#b55b52" id="svg_82" points="178.96937370300293,221.63937664031982 179.15937614440918,228.079363822937 174.54937553405762,231.089373588562 172.949369430542,224.01936626434326 178.96937370300293,221.63937664031982 "/>
   <path d="m192.46,162.12c0.1,0.49 0.45,0.84 0.77,0.78s0.51,-0.52 0.41,-1s-0.45,-0.84 -0.77,-0.78s-0.51,0.53 -0.41,1z" fill="#263238" id="svg_83"/>
   <path d="m192.86,162.97a18.21,18.21 0 0 0 3.23,3.76a2.92,2.92 0 0 1 -2.28,0.93l-0.95,-4.69z" fill="#a02724" id="svg_84"/>
   <path d="m190.09,159.74a0.3,0.3 0 0 1 -0.22,-0.5a3,3 0 0 1 2.53,-1a0.3,0.3 0 0 1 0.24,0.35a0.29,0.29 0 0 1 -0.34,0.24l0,0a2.35,2.35 0 0 0 -2,0.8a0.32,0.32 0 0 1 -0.21,0.11z" fill="#263238" id="svg_85"/>
   <path d="m178.04,169.09c1.1,4.59 2.21,13 -1.73,16.05c0,0 1.54,4.66 12,4.66c11.5,0 5.5,-3 5.5,-3c-6.28,-1.22 -6.12,-6.67 -5,-10.24l-10.77,-7.47z" fill="#b55b52" id="svg_86"/>
   <path d="m175.08,185.99c-0.68,-1.27 -1.44,-2.73 0.12,-3.19c1.72,-0.5 12.75,-1.43 16,-0.49c-1,1.77 0.69,4 0.69,4l-16.81,-0.32z" fill="#263238" id="svg_87"/>
   <polygon fill="#b55b52" id="svg_88" points="184.21937370300293,400.56938457489014 191.42938041687012,400.56938457489014 192.14938163757324,386.04936504364014 184.92938041687012,386.04936504364014 184.21937370300293,400.56938457489014 "/>
   <polygon fill="#b55b52" id="svg_89" points="138.42938041687012,398.56938457489014 145.73937797546387,398.9593687057495 150.17938041687012,384.64937114715576 142.86937522888184,384.25935649871826 138.42938041687012,398.56938457489014 "/>
   <path d="m145.52,398.38l-6.89,-1.49a0.54,0.54 0 0 0 -0.61,0.3l-2.39,5.19a0.91,0.91 0 0 0 0.66,1.28c2.41,0.48 3.61,0.59 6.64,1.25c1.86,0.4 6.07,1.43 8.64,2s3.46,-1.91 2.46,-2.37c-4.5,-2.05 -6.38,-3.86 -7.6,-5.55a1.55,1.55 0 0 0 -0.91,-0.61z" fill="#263238" id="svg_90"/>
   <path d="m191.05,399.84l-6.85,0a0.55,0.55 0 0 0 -0.53,0.43l-1.24,5.57a0.91,0.91 0 0 0 0.9,1.12c2.47,0 6,-0.19 9.15,-0.19c3.63,0 6.76,0.2 11,0.2c2.57,0 3.29,-2.6 2.21,-2.84c-4.91,-1.07 -8.91,-1.19 -13.15,-3.8a2.94,2.94 0 0 0 -1.49,-0.49z" fill="#263238" id="svg_91"/>
   <path d="m163.24,187.26c-5.44,2.59 -6.92,18.29 -6.92,18.29l13.47,6.22a25.78,25.78 0 0 0 3.6,-12.67c0.27,-8.11 -4.58,-14.45 -10.15,-11.84z" fill="#263238" id="svg_92"/>
   <path d="m170.52,196.94c-2.43,3.78 -2.2,9.62 -1.36,14.55l0.6,0.28a25.83,25.83 0 0 0 3.6,-12.67c0,-0.48 0,-1 0,-1.43l-2.84,-0.73z" id="svg_93" opacity="0.4"/>
   <path d="m200.83,186.88s6.68,7.54 0.37,54.2l-33.53,0c-0.23,-5.15 3,-30.26 -2,-54.52a88.21,88.21 0 0 1 11.22,-1.42a125.53,125.53 0 0 1 14.26,0a64,64 0 0 1 9.68,1.74z" fill="#F7921E" id="svg_94"/>
   <path d="m200.83,186.88s6.68,7.54 0.37,54.2l-33.53,0c-0.23,-5.15 3,-30.26 -2,-54.52a88.21,88.21 0 0 1 11.22,-1.42a125.53,125.53 0 0 1 14.26,0a64,64 0 0 1 9.68,1.74z" fill="#fafafa" id="svg_95" opacity="0.6"/>
   <path d="m203.76,201.14l-0.12,-0.11l-6.67,-3.56c-0.68,10.27 3.91,16.71 6.64,19.52a143.39,143.39 0 0 0 0.15,-15.85z" id="svg_96" opacity="0.2"/>
   <polygon id="svg_97" opacity="0.2" points="192.14938163757324,386.04936504364014 191.77937126159668,393.53938579559326 184.55937004089355,393.53938579559326 184.92938041687012,386.04936504364014 192.14938163757324,386.04936504364014 "/>
   <polygon id="svg_98" opacity="0.2" points="142.86937522888184,384.26936626434326 150.17938041687012,384.64937114715576 147.88937950134277,392.02937602996826 140.5793743133545,391.63936138153076 142.86937522888184,384.26936626434326 "/>
   <path d="m175.72,164.43c1.61,6 2.25,9.61 6,12.11c5.58,3.76 12.52,-0.56 12.74,-6.93c0.19,-5.73 -2.47,-14.6 -8.92,-15.81a8.49,8.49 0 0 0 -9.82,10.63z" fill="#b55b52" id="svg_99"/>
   <path d="m189.31,241.08s-7.12,47.91 -11,65.87c-4.3,19.7 -27.24,84.7 -27.24,84.7l-11.23,-2.43s14.39,-53 18,-80.48c1.4,-10.73 3.09,-28 5.23,-42.43c2.07,-14 4.62,-25.22 4.62,-25.22l21.62,-0.01z" fill="#263238" id="svg_100"/>
   <path d="m153.76,387.9s-2.1,4.06 -2.1,4.06l-12.62,-2.74l1.06,-3.79l13.66,2.47z" fill="#F7921E" id="svg_101"/>
   <path d="m153.76,387.9s-2.1,4.06 -2.1,4.06l-12.62,-2.74l1.06,-3.79l13.66,2.47z" fill="#fff" id="svg_102" opacity="0.6"/>
   <path d="m184.81,258.15c-8.23,1.61 -7.36,32.3 -6.37,48.08c2.38,-11.16 5.85,-32.62 8.22,-47.86a2.8,2.8 0 0 0 -1.85,-0.22z" id="svg_103" opacity="0.6"/>
   <path d="m201.2,241.08s3.35,46.88 2.67,66c-0.71,19.89 -10.14,85 -10.14,85l-10.62,0s-0.39,-64 -0.86,-83.49c-0.52,-21.3 -3.09,-67.52 -3.09,-67.52l22.04,0.01z" fill="#263238" id="svg_104"/>
   <path d="m195.77,387.86c0.05,0 -0.6,4.41 -0.6,4.41l-12.92,0l-0.35,-3.94l13.87,-0.47z" fill="#F7921E" id="svg_105"/>
   <path d="m195.77,387.86c0.05,0 -0.6,4.41 -0.6,4.41l-12.92,0l-0.35,-3.94l13.87,-0.47z" fill="#fff" id="svg_106" opacity="0.6"/>
   <path d="m196.92,195.65c0,12.58 6.69,17.76 6.69,17.76l10.91,-10.62a89.8,89.8 0 0 0 -8.79,-12.23c-6.31,-7.23 -8.81,-2.99 -8.81,5.09z" fill="#263238" id="svg_107"/>
   <path d="m194.04,171.89a4.1,4.1 0 0 1 -2.82,2.6a3.38,3.38 0 0 0 -2.69,3l0,0a8.66,8.66 0 0 0 5.51,-5.6z" id="svg_108" opacity="0.2"/>
   <path d="m191.22,152.48c2.24,-2.83 -1.21,-3 -1.21,-3c0.9,-3.37 -3.14,-1.56 -3.14,-1.56c-2.42,-3.34 -3.79,0.73 -3.79,0.73c-2.51,-2.83 -3,1.79 -3,1.79c-2.52,-3.59 -3.8,1.59 -3.8,1.59c-2.32,-3.73 -3.74,1.12 -3.74,1.12c-4.79,-1.71 -2.52,3.27 -2.52,3.27c-4.08,0.11 -0.8,3.28 -0.8,3.28c-4.9,0 -0.58,2.81 -0.58,2.81c-3.89,2.55 1,3.24 1,3.24c-3.17,5 2.28,3.12 2.28,3.12c-2.21,4.92 2.68,2.75 2.68,2.75c-0.31,4.74 2.42,3.45 3.74,2.57c0.25,1 0.73,2 1.61,2.08c1.71,0.23 2,-3 2,-3s1.58,1.24 2.91,0.57s0.83,-2.36 0.83,-2.36a1.67,1.67 0 0 0 2,0c0.57,-0.44 0.57,-3.62 -0.15,-4.74l2.6,-1s1.93,-0.27 1.07,-2.82a7.42,7.42 0 0 1 -0.13,-4.55c2.94,-1.38 0.52,-3 0.52,-3c3.41,-2.19 -0.38,-2.89 -0.38,-2.89z" fill="#263238" id="svg_109"/>
   <path d="m185.95,164.65a7,7 0 0 0 2.53,3.74c1.63,1.22 2.85,0 2.73,-1.83c-0.1,-1.66 -1.08,-4.29 -2.88,-4.79s-2.81,1.11 -2.38,2.88z" fill="#b55b52" id="svg_110"/>
  </g>
 </g>
</svg>