<svg width="723" height="220" viewBox="0 0 723 220" fill="none" xmlns="http://www.w3.org/2000/svg">
<path d="M685.179 151.606L685.182 151.608C688.868 153.354 693.059 154.22 697.744 154.22C702.495 154.22 706.692 153.289 710.32 151.411C714.004 149.536 716.862 146.943 718.876 143.63C720.957 140.311 721.99 136.45 721.99 132.064V88.7513V88.2513H721.49H712.942H712.442V88.7513V93.368C711.045 91.7665 709.355 90.4587 707.375 89.446C704.572 88.0115 701.357 87.3015 697.744 87.3015C693.542 87.3015 689.747 88.3369 686.37 90.4144C683.065 92.4237 680.441 95.1788 678.501 98.6701C676.555 102.109 675.588 106.026 675.588 110.408C675.588 114.79 676.555 118.768 678.498 122.33L678.5 122.334C680.441 125.826 683.065 128.582 686.371 130.592L686.375 130.594C689.751 132.606 693.545 133.609 697.744 133.609C701.295 133.609 704.478 132.898 707.28 131.464C709.304 130.429 711.026 129.101 712.442 127.482V132.064C712.442 136.058 711.127 139.175 708.526 141.473L708.526 141.473L708.517 141.481C705.973 143.843 702.466 145.052 697.934 145.052C694.512 145.052 691.584 144.43 689.134 143.205L689.134 143.205L689.125 143.2C686.667 142.033 684.542 140.31 682.75 138.025L682.399 137.577L682 137.982L676.491 143.587L676.201 143.882L676.437 144.222C678.641 147.399 681.559 149.861 685.179 151.606ZM706.524 122.794L706.524 122.794L706.518 122.797C704.516 123.95 702.166 124.535 699.454 124.535C696.68 124.535 694.234 123.951 692.101 122.795C690.03 121.575 688.385 119.901 687.163 117.763C686.006 115.63 685.421 113.183 685.421 110.408C685.421 107.631 686.007 105.217 687.161 103.15C688.384 101.011 690.029 99.3681 692.099 98.2113L692.099 98.2114L692.109 98.2058C694.175 96.9906 696.586 96.3751 699.359 96.3751C702.132 96.3751 704.509 96.9907 706.509 98.2024L706.509 98.2025L706.518 98.2081C708.522 99.3616 710.07 100.999 711.167 103.133L711.171 103.14L711.175 103.148C712.33 105.214 712.917 107.66 712.917 110.503C712.917 113.348 712.36 115.831 711.264 117.965C710.17 120.03 708.593 121.638 706.524 122.794Z" fill="black" stroke="black"/>
<path d="M637.972 132.78L637.972 132.78L637.983 132.787C641.039 134.477 644.448 135.319 648.198 135.319C652.133 135.319 655.579 134.479 658.517 132.782L658.52 132.78C661.51 131.025 663.853 128.616 665.543 125.562C667.236 122.501 668.075 118.964 668.075 114.967V88.7513V88.2513H667.575H659.026H658.526V88.7513V114.587C658.526 118.237 657.6 121.05 655.805 123.087C654.018 125.051 651.536 126.055 648.293 126.055C646.15 126.055 644.308 125.596 642.749 124.697C641.194 123.8 639.996 122.516 639.152 120.832C638.366 119.075 637.965 116.997 637.965 114.587V88.7513V88.2513H637.465H628.916H628.416V88.7513V114.967C628.416 118.964 629.255 122.501 630.949 125.562C632.638 128.616 634.981 131.025 637.972 132.78Z" fill="black" stroke="black"/>
<path d="M596.189 104.94V133.869V134.369H596.689H605.618H606.118V133.869V104.673L630.445 68.2274L630.964 67.4499H630.029H619.866H619.596L619.447 67.6757L601.207 95.4896L583.05 67.6765L582.903 67.4499H582.632H572.279H571.347L571.862 68.226L596.189 104.94Z" fill="black" stroke="black"/>
<path d="M555.17 133.869V134.369H555.67H564.219H564.719V133.869V105.848C564.719 102.661 563.938 99.6648 562.377 96.8685C560.818 94.0107 558.672 91.7015 555.943 89.9469C553.258 88.1791 550.153 87.3015 546.647 87.3015C543.149 87.3015 539.991 88.1119 537.186 89.7416C535.504 90.6812 534.042 91.8341 532.804 93.1993V88.7513V88.2513H532.304H523.756H523.256V88.7513V133.869V134.369H523.756H532.304H532.804V133.869V108.417V107.558C532.804 105.355 533.293 103.416 534.258 101.727C535.227 100.032 536.556 98.7029 538.252 97.734C539.941 96.7689 541.88 96.2801 544.082 96.2801C547.383 96.2801 550.034 97.3444 552.082 99.453C554.135 101.566 555.17 104.254 555.17 107.558V133.869Z" fill="black" stroke="black"/>
<path d="M484.947 133.869V134.369H485.447H493.995H494.495V133.869V108.895V108.128C494.495 104.087 495.49 101.166 497.388 99.2682C499.311 97.3459 501.775 96.3751 504.824 96.3751C506.296 96.3751 507.562 96.5899 508.632 97.006C509.693 97.4187 510.677 98.1006 511.583 99.0666L511.942 99.4497L512.307 99.0723L517.911 93.2782L518.228 92.95L517.93 92.6042C516.309 90.7236 514.54 89.373 512.62 88.577C510.713 87.7234 508.586 87.3015 506.248 87.3015C501.201 87.3015 497.259 89.0063 494.495 92.453V88.7513V88.2513H493.995H485.447H484.947V88.7513V133.869Z" fill="black" stroke="black"/>
<path d="M437.877 132.204L437.877 132.204L437.883 132.207C441.321 134.283 445.148 135.319 449.35 135.319C452.9 135.319 456.054 134.608 458.795 133.172L458.799 133.17C460.775 132.113 462.462 130.778 463.857 129.165V133.869V134.369H464.357H473.001H473.501V133.869V88.7513V88.2513H473.001H464.357H463.857V88.7513V93.5164C462.421 91.8926 460.702 90.568 458.702 89.5442C455.962 88.0448 452.84 87.3015 449.35 87.3015C445.083 87.3015 441.223 88.3696 437.783 90.5115L437.782 90.5115L437.779 90.5138C434.413 92.6501 431.728 95.531 429.726 99.1474L429.726 99.1474L429.722 99.1534C427.78 102.779 426.814 106.851 426.814 111.358C426.814 115.864 427.78 119.936 429.722 123.562L429.722 123.562L429.726 123.568C431.729 127.186 434.447 130.068 437.877 132.204ZM462.673 103.503L462.677 103.51L462.68 103.517C463.839 105.712 464.427 108.32 464.427 111.358C464.427 115.749 463.163 119.329 460.662 122.136C458.17 124.869 454.891 126.245 450.775 126.245C448.006 126.245 445.564 125.6 443.433 124.322C441.295 123.039 439.617 121.301 438.393 119.101C437.234 116.84 436.647 114.232 436.647 111.263C436.647 108.356 437.234 105.811 438.393 103.614C439.619 101.346 441.268 99.5777 443.341 98.2969C445.471 97.0195 447.912 96.3751 450.68 96.3751C453.448 96.3751 455.856 97.0201 457.921 98.2952L457.921 98.2953L457.93 98.3008C459.994 99.5151 461.574 101.244 462.673 103.503Z" fill="black" stroke="black"/>
<path d="M398.441 134.077L398.575 134.369H398.896H403.93H404.25L404.384 134.077L425.091 88.9599L425.416 88.2513H424.636H415.518H415.191L415.06 88.5504L401.564 119.299L388.146 88.5514L388.015 88.2513H387.688H378.189H377.41L377.735 88.9599L398.441 134.077Z" fill="black" stroke="black"/>
<path d="M342.353 132.78L342.353 132.78L342.364 132.787C345.42 134.477 348.829 135.319 352.579 135.319C356.514 135.319 359.96 134.479 362.898 132.782L362.9 132.78C365.891 131.025 368.234 128.616 369.924 125.562C371.617 122.501 372.456 118.964 372.456 114.967V88.7513V88.2513H371.956H363.407H362.907V88.7513V114.587C362.907 118.237 361.981 121.05 360.185 123.087C358.398 125.051 355.917 126.055 352.674 126.055C350.531 126.055 348.688 125.596 347.13 124.697C345.575 123.8 344.377 122.516 343.533 120.832C342.747 119.075 342.346 116.997 342.346 114.587V88.7513V88.2513H341.846H333.297H332.797V88.7513V114.967C332.797 118.964 333.636 122.501 335.329 125.562C337.019 128.616 339.362 131.025 342.353 132.78Z" fill="black" stroke="black"/>
<path d="M278.168 123.352L277.853 123.666L278.129 124.015C281.017 127.674 284.332 130.477 288.075 132.413C291.834 134.358 296.35 135.319 301.602 135.319C308.519 135.319 314.057 133.653 318.161 130.266C322.344 126.867 324.424 122.157 324.424 116.202C324.424 112.669 323.814 109.703 322.565 107.332C321.395 104.929 319.828 102.969 317.864 101.462C315.929 99.9788 313.801 98.7542 311.483 97.7882C309.193 96.8342 306.872 95.9755 304.519 95.2121C302.258 94.3954 300.189 93.5173 298.311 92.5784C296.462 91.6536 294.966 90.5522 293.813 89.28C292.767 87.9967 292.224 86.3152 292.224 84.1921C292.224 81.5513 293.204 79.5549 295.153 78.1376L295.153 78.1376L295.16 78.1317C297.137 76.6343 299.837 75.8586 303.312 75.8586C306.159 75.8586 308.643 76.4152 310.777 77.5129L310.777 77.513L310.782 77.5155C312.993 78.6209 315.063 80.2854 316.991 82.5237L317.342 82.9319L317.723 82.551L323.802 76.472L324.117 76.1574L323.841 75.8083C321.637 73.0215 318.79 70.7917 315.31 69.1157C311.814 67.3682 307.874 66.5 303.502 66.5C299.514 66.5 295.896 67.2399 292.657 68.7294C289.476 70.1579 286.934 72.2414 285.044 74.9795L285.042 74.9816C283.202 77.6756 282.295 80.9447 282.295 84.762C282.295 88.1713 282.874 91.0421 284.061 93.3493L284.06 93.3493L284.066 93.3592C285.302 95.6356 286.9 97.4982 288.864 98.9379L288.864 98.938L288.873 98.9443C290.804 100.296 292.925 101.453 295.236 102.416L295.236 102.416L295.247 102.42C297.53 103.308 299.814 104.164 302.097 104.989L302.097 104.989L302.109 104.993C304.365 105.745 306.429 106.621 308.301 107.619L308.31 107.624L308.318 107.628C310.22 108.549 311.705 109.736 312.79 111.183C313.848 112.593 314.4 114.473 314.4 116.867C314.4 119.682 313.274 121.873 311.001 123.488L311.001 123.488L310.996 123.492C308.764 125.12 305.744 125.96 301.887 125.96C297.959 125.96 294.69 125.243 292.059 123.837C289.411 122.358 287.059 120.196 285.006 117.335L284.663 116.856L284.247 117.273L278.168 123.352Z" fill="black" stroke="black"/>
<path d="M146.414 133.079L126.907 100.327H141.663L156.564 126.889H146.198L161.098 100.327H175.567L155.916 133.079H146.414ZM144.902 151.363V127.825H157.787V151.363H144.902Z" fill="black"/>
<path d="M106.283 152.155C102.012 152.155 98.2933 151.507 95.1261 150.211C92.0068 148.916 89.1515 146.876 86.5601 144.093L94.6942 135.887C96.4698 137.758 98.3653 139.198 100.381 140.206C102.396 141.165 104.676 141.645 107.219 141.645C109.379 141.645 111.034 141.285 112.186 140.566C113.386 139.798 113.986 138.766 113.986 137.47C113.986 136.271 113.554 135.287 112.69 134.519C111.826 133.703 110.674 133.007 109.235 132.432C107.843 131.808 106.283 131.232 104.556 130.704C102.876 130.128 101.173 129.456 99.4451 128.688C97.7655 127.873 96.2058 126.889 94.7662 125.737C93.3745 124.585 92.2468 123.146 91.383 121.418C90.5192 119.691 90.0873 117.555 90.0873 115.012C90.0873 111.748 90.8551 108.965 92.3907 106.662C93.9744 104.358 96.1578 102.583 98.9412 101.335C101.725 100.087 104.964 99.4634 108.659 99.4634C112.354 99.4634 115.761 100.087 118.88 101.335C122 102.583 124.567 104.31 126.583 106.518L118.377 114.652C116.841 113.116 115.281 111.964 113.698 111.197C112.114 110.429 110.386 110.045 108.515 110.045C106.739 110.045 105.348 110.357 104.34 110.981C103.332 111.604 102.828 112.492 102.828 113.644C102.828 114.796 103.26 115.732 104.124 116.451C104.988 117.171 106.115 117.819 107.507 118.395C108.947 118.923 110.506 119.475 112.186 120.05C113.914 120.626 115.617 121.298 117.297 122.066C118.976 122.834 120.512 123.818 121.904 125.017C123.343 126.217 124.495 127.729 125.359 129.552C126.223 131.376 126.655 133.583 126.655 136.175C126.655 141.261 124.855 145.197 121.256 147.98C117.705 150.763 112.714 152.155 106.283 152.155Z" fill="black"/>
<path d="M218.619 143.157C219.292 138.723 219.639 134.179 219.639 129.56C219.639 128.792 219.632 128.031 219.609 127.27L258.613 121.427L219.189 120.518C219.188 120.517 219.188 120.516 219.188 120.514C218.656 115.156 217.651 109.931 216.21 104.884C216.21 104.883 216.21 104.882 216.209 104.881L252.527 89.5252L214.119 98.4488C214.119 98.4482 214.119 98.4474 214.118 98.4468C212.271 93.4288 209.987 88.6177 207.319 84.0652C207.319 84.0643 207.318 84.0635 207.318 84.0626L238.699 60.1392L203.683 78.3517C200.661 73.9776 197.269 69.8769 193.538 66.1084L217.998 35.1153L188.608 61.4664C188.608 61.4661 188.607 61.4658 188.607 61.4654C184.616 57.9846 180.315 54.8512 175.748 52.1095L191.723 16.0259L169.826 48.8343C165.112 46.4626 160.168 44.4897 155.033 42.9602L161.527 4.07038L148.484 41.2748C143.37 40.1664 138.086 39.4865 132.692 39.2944H132.689L129.306 0L125.924 39.2944H125.922C120.527 39.4865 115.243 40.1664 110.129 41.2749L97.0853 4.0703L103.579 42.9605C98.4441 44.4901 93.5008 46.463 88.7867 48.8347L66.8892 16.0259L82.8645 52.1102C78.2977 54.8518 73.9972 57.985 70.0066 61.4654C70.0063 61.4659 70.0055 61.4664 70.0052 61.4669L40.6149 35.1153L65.0748 66.1093C61.3437 69.8777 57.9524 73.9782 54.9306 78.3523L19.9136 60.1392L51.2954 84.0633C51.2951 84.0639 51.2948 84.0645 51.2943 84.0652C48.6265 88.6177 46.3427 93.4288 44.4951 98.4468C44.4949 98.4475 44.4947 98.4483 44.4943 98.4491L6.08543 89.5252L42.4044 104.882C42.4042 104.882 42.4039 104.883 42.4039 104.884C40.9626 109.931 39.9576 115.156 39.4254 120.514C39.4252 120.516 39.4251 120.517 39.4251 120.518L0 121.427L39.0043 127.27C38.982 128.031 38.9747 128.792 38.9747 129.56C38.9747 134.179 39.3219 138.723 39.9941 143.157L2.03922 153.84L41.2651 149.8C41.2654 149.801 41.2654 149.802 41.2658 149.802C41.8864 152.515 42.6255 155.175 43.4901 157.784H51.3092C48.1091 148.975 46.3651 139.471 46.3651 129.56C46.3651 83.8288 83.5756 46.6184 129.307 46.6184C175.038 46.6184 212.249 83.8288 212.249 129.56C212.249 139.471 210.505 148.975 207.305 157.784H215.124C215.988 155.175 216.727 152.515 217.348 149.802C217.348 149.802 217.348 149.801 217.348 149.8L256.573 153.84L218.619 143.157Z" fill="#FF8000"/>
<path d="M75.7539 174.089C81.0087 182.372 91.5862 190.568 98.9707 194.272C81.1397 195.503 63.3489 179.098 48.052 158.523C55.392 195.304 86.4389 213.927 122.451 219.863C124.43 194.14 108.732 183.455 75.7539 174.089Z" fill="#80C612"/>
<path d="M159.642 194.272C167.026 190.568 177.604 182.372 182.859 174.089C149.88 183.455 134.182 194.14 136.161 219.863C172.174 213.927 203.22 195.304 210.56 158.523C195.264 179.098 177.473 195.503 159.642 194.272Z" fill="#80C612"/>
</svg>
