<?xml version="1.0"?>
<svg width="723" height="220" xmlns="http://www.w3.org/2000/svg" xmlns:svg="http://www.w3.org/2000/svg">
 <g class="layer">
  <title>Layer 1</title>
  <path d="m685.18,151.61l0,0c3.69,1.74 7.88,2.61 12.56,2.61c4.76,0 8.95,-0.93 12.58,-2.81c3.68,-1.87 6.54,-4.47 8.56,-7.78c2.08,-3.32 3.11,-7.18 3.11,-11.57l0,-43.31l0,-0.5l-0.5,0l-8.55,0l-0.5,0l0,0.5l0,4.62c-1.4,-1.6 -3.08,-2.91 -5.06,-3.92c-2.81,-1.44 -6.02,-2.15 -9.64,-2.15c-4.2,0 -7.99,1.04 -11.37,3.11c-3.3,2.01 -5.93,4.77 -7.87,8.26c-1.95,3.44 -2.91,7.36 -2.91,11.74c0,4.38 0.96,8.36 2.91,11.92l0,0c1.94,3.5 4.57,6.25 7.87,8.26l0.01,0c3.37,2.02 7.16,3.02 11.36,3.02c3.55,0 6.74,-0.71 9.54,-2.15c2.02,-1.03 3.75,-2.36 5.16,-3.98l0,4.58c0,4 -1.31,7.12 -3.91,9.41l0,0l-0.01,0.01c-2.55,2.36 -6.05,3.57 -10.59,3.57c-3.42,0 -6.35,-0.62 -8.8,-1.84l0,0l0,-0.01c-2.46,-1.17 -4.59,-2.89 -6.38,-5.17l-0.35,-0.45l-0.4,0.4l-5.51,5.61l-0.29,0.29l0.24,0.34c2.2,3.18 5.12,5.64 8.74,7.39zm21.34,-28.82l0,0l0,0.01c-2,1.15 -4.35,1.73 -7.07,1.73c-2.77,0 -5.22,-0.58 -7.35,-1.73c-2.07,-1.22 -3.72,-2.9 -4.94,-5.04c-1.15,-2.13 -1.74,-4.58 -1.74,-7.35c0,-2.78 0.59,-5.19 1.74,-7.26c1.22,-2.14 2.87,-3.78 4.94,-4.94l0,0l0.01,0c2.06,-1.22 4.48,-1.83 7.25,-1.83c2.77,0 5.15,0.61 7.15,1.82l0,0l0.01,0.01c2,1.15 3.55,2.79 4.65,4.92l0,0.01l0,0.01c1.16,2.06 1.75,4.51 1.75,7.35c0,2.85 -0.56,5.33 -1.66,7.47c-1.09,2.06 -2.67,3.67 -4.74,4.82z" fill="#ffffff" id="svg_1" stroke="black" transform="matrix(1 0 0 1 0 0)"/>
  <path d="m637.97,132.78l0,0l0.01,0.01c3.06,1.69 6.47,2.53 10.22,2.53c3.93,0 7.38,-0.84 10.32,-2.54l0,0c2.99,-1.75 5.33,-4.16 7.02,-7.22c1.7,-3.06 2.54,-6.6 2.54,-10.59l0,-26.22l0,-0.5l-0.5,0l-8.55,0l-0.5,0l0,0.5l0,25.84c0,3.65 -0.93,6.46 -2.73,8.5c-1.78,1.96 -4.26,2.97 -7.51,2.97c-2.14,0 -3.98,-0.46 -5.54,-1.36c-1.56,-0.9 -2.75,-2.18 -3.6,-3.87c-0.78,-1.75 -1.18,-3.83 -1.18,-6.24l0,-25.84l0,-0.5l-0.5,0l-8.55,0l-0.5,0l0,0.5l0,26.22c0,3.99 0.83,7.53 2.53,10.59c1.69,3.06 4.03,5.47 7.02,7.22z" fill="#ffffff" id="svg_2" stroke="black" transform="matrix(1 0 0 1 0 0)"/>
  <path d="m596.19,104.94l0,28.93l0,0.5l0.5,0l8.93,0l0.5,0l0,-0.5l0,-29.2l24.33,-36.44l0.51,-0.78l-0.93,0l-10.16,0l-0.27,0l-0.15,0.23l-18.24,27.81l-18.16,-27.81l-0.15,-0.23l-0.27,0l-10.35,0l-0.93,0l0.51,0.78l24.33,36.71z" fill="#ffffff" id="svg_3" stroke="black"/>
  <path d="m555.17,133.87l0,0.5l0.5,0l8.55,0l0.5,0l0,-0.5l0,-28.02c0,-3.19 -0.78,-6.19 -2.34,-8.98c-1.56,-2.86 -3.71,-5.17 -6.44,-6.92c-2.68,-1.77 -5.79,-2.65 -9.29,-2.65c-3.5,0 -6.66,0.81 -9.46,2.44c-1.69,0.94 -3.15,2.09 -4.39,3.46l0,-4.45l0,-0.5l-0.5,0l-8.54,0l-0.5,0l0,0.5l0,45.12l0,0.5l0.5,0l8.54,0l0.5,0l0,-0.5l0,-25.45l0,-0.86c0,-2.2 0.49,-4.14 1.46,-5.83c0.97,-1.7 2.3,-3.03 3.99,-4c1.69,-0.96 3.63,-1.45 5.83,-1.45c3.3,0 5.95,1.06 8,3.17c2.05,2.12 3.09,4.8 3.09,8.11l0,26.31z" fill="#ffffff" id="svg_4" stroke="black" transform="matrix(1 0 0 1 0 0)"/>
  <path d="m484.95,133.87l0,0.5l0.5,0l8.55,0l0.5,0l0,-0.5l0,-24.98l0,-0.76c0,-4.04 0.99,-6.96 2.89,-8.86c1.92,-1.92 4.38,-2.89 7.43,-2.89c1.48,0 2.74,0.21 3.81,0.63c1.06,0.41 2.05,1.09 2.95,2.06l0.36,0.38l0.37,-0.38l5.6,-5.79l0.32,-0.33l-0.3,-0.35c-1.62,-1.88 -3.39,-3.23 -5.31,-4.02c-1.91,-0.86 -4.03,-1.28 -6.37,-1.28c-5.05,0 -8.99,1.71 -11.75,5.15l0,-3.7l0,-0.5l-0.5,0l-8.55,0l-0.5,0l0,0.5l0,45.12z" fill="#ffffff" id="svg_5" stroke="black" transform="matrix(1 0 0 1 0 0)"/>
  <path d="m437.88,132.2l0,0l0,0.01c3.44,2.07 7.27,3.11 11.47,3.11c3.55,0 6.7,-0.71 9.45,-2.15l0,0c1.97,-1.06 3.66,-2.39 5.06,-4.01l0,4.71l0,0.5l0.5,0l8.64,0l0.5,0l0,-0.5l0,-45.12l0,-0.5l-0.5,0l-8.64,0l-0.5,0l0,0.5l0,4.77c-1.44,-1.63 -3.16,-2.95 -5.16,-3.98c-2.74,-1.5 -5.86,-2.24 -9.35,-2.24c-4.27,0 -8.13,1.07 -11.57,3.21l0,0l0,0c-3.37,2.14 -6.05,5.02 -8.05,8.64l0,0l-0.01,0c-1.94,3.63 -2.91,7.7 -2.91,12.21c0,4.5 0.97,8.58 2.91,12.2l0,0l0.01,0.01c2,3.62 4.72,6.5 8.15,8.63zm24.79,-28.7l0.01,0.01l0,0.01c1.16,2.19 1.75,4.8 1.75,7.84c0,4.39 -1.27,7.97 -3.77,10.78c-2.49,2.73 -5.77,4.11 -9.89,4.11c-2.76,0 -5.21,-0.65 -7.34,-1.93c-2.13,-1.28 -3.81,-3.02 -5.04,-5.22c-1.16,-2.26 -1.74,-4.87 -1.74,-7.84c0,-2.9 0.58,-5.45 1.74,-7.65c1.23,-2.26 2.88,-4.03 4.95,-5.31c2.13,-1.28 4.57,-1.92 7.34,-1.92c2.77,0 5.18,0.64 7.24,1.92l0,0l0.01,0c2.06,1.22 3.64,2.94 4.74,5.2z" fill="#ffffff" id="svg_6" stroke="black" transform="matrix(1 0 0 1 0 0)"/>
  <path d="m398.44,134.08l0.13,0.29l0.33,0l5.03,0l0.32,0l0.13,-0.29l20.71,-45.12l0.33,-0.71l-0.78,0l-9.12,0l-0.33,0l-0.13,0.3l-13.5,30.75l-13.41,-30.75l-0.14,-0.3l-0.32,0l-9.5,0l-0.78,0l0.33,0.71l20.7,45.12z" fill="#ffffff" id="svg_7" stroke="black"/>
  <path d="m342.35,132.78l0,0l0.01,0.01c3.06,1.69 6.47,2.53 10.22,2.53c3.93,0 7.38,-0.84 10.32,-2.54l0,0c2.99,-1.75 5.33,-4.16 7.02,-7.22c1.7,-3.06 2.54,-6.6 2.54,-10.59l0,-26.22l0,-0.5l-0.5,0l-8.55,0l-0.5,0l0,0.5l0,25.84c0,3.65 -0.93,6.46 -2.72,8.5c-1.79,1.96 -4.27,2.97 -7.52,2.97c-2.14,0 -3.98,-0.46 -5.54,-1.36c-1.56,-0.9 -2.75,-2.18 -3.6,-3.87c-0.78,-1.75 -1.18,-3.83 -1.18,-6.24l0,-25.84l0,-0.5l-0.5,0l-8.55,0l-0.5,0l0,0.5l0,26.22c0,3.99 0.84,7.53 2.53,10.59c1.69,3.06 4.03,5.47 7.02,7.22z" fill="#ffffff" id="svg_8" stroke="black" transform="matrix(1 0 0 1 0 0)"/>
  <path d="m278.17,123.35l-0.32,0.32l0.28,0.35c2.89,3.65 6.2,6.46 9.94,8.39c3.76,1.95 8.28,2.91 13.53,2.91c6.92,0 12.46,-1.67 16.56,-5.05c4.18,-3.4 6.26,-8.11 6.26,-14.07c0,-3.53 -0.61,-6.5 -1.86,-8.87c-1.17,-2.4 -2.73,-4.36 -4.7,-5.87c-1.93,-1.48 -4.06,-2.71 -6.38,-3.67c-2.29,-0.96 -4.61,-1.81 -6.96,-2.58c-2.26,-0.81 -4.33,-1.69 -6.21,-2.63c-1.85,-0.93 -3.34,-2.03 -4.5,-3.3c-1.04,-1.28 -1.59,-2.96 -1.59,-5.09c0,-2.64 0.98,-4.64 2.93,-6.05l0,0l0.01,-0.01c1.98,-1.5 4.68,-2.27 8.15,-2.27c2.85,0 5.33,0.56 7.47,1.65l0,0l0,0.01c2.21,1.1 4.28,2.77 6.21,5l0.35,0.41l0.38,-0.38l6.08,-6.08l0.32,-0.31l-0.28,-0.35c-2.2,-2.79 -5.05,-5.02 -8.53,-6.69c-3.5,-1.75 -7.44,-2.62 -11.81,-2.62c-3.99,0 -7.6,0.74 -10.84,2.23c-3.18,1.43 -5.73,3.51 -7.62,6.25l0,0c-1.84,2.7 -2.74,5.96 -2.74,9.78c0,3.41 0.57,6.28 1.76,8.59l0,0l0.01,0.01c1.23,2.28 2.83,4.14 4.79,5.58l0,0l0.01,0c1.93,1.36 4.06,2.51 6.37,3.48l0,0l0.01,0c2.28,0.89 4.56,1.74 6.85,2.57l0,0l0.01,0c2.26,0.76 4.32,1.63 6.19,2.63l0.01,0l0.01,0.01c1.9,0.92 3.38,2.11 4.47,3.55c1.06,1.41 1.61,3.29 1.61,5.69c0,2.81 -1.13,5 -3.4,6.62l0,0l0,0c-2.24,1.63 -5.26,2.47 -9.11,2.47c-3.93,0 -7.2,-0.72 -9.83,-2.12c-2.65,-1.48 -5,-3.64 -7.05,-6.51l-0.35,-0.47l-0.41,0.41l-6.08,6.08z" fill="#ffffff" id="svg_9" stroke="black"/>
  <path d="m219.62,143.16c0.67,-4.44 1.02,-8.98 1.02,-13.6c0,-0.77 -0.01,-1.53 -0.03,-2.29l39,-5.84l-39.42,-0.91c0,0 0,0 0,-0.01c-0.53,-5.35 -1.54,-10.58 -2.98,-15.63c0,0 0,0 0,0l36.32,-15.35l-38.41,8.92c0,0 0,0 0,0c-1.85,-5.02 -4.13,-9.83 -6.8,-14.38c0,-0.01 0,-0.01 0,-0.01l31.38,-23.92l-35.02,18.21c-3.02,-4.37 -6.41,-8.47 -10.14,-12.24l24.46,-30.99l-29.39,26.35c0,0 0,0 0,0c-3.99,-3.49 -8.3,-6.62 -12.86,-9.36l15.97,-36.08l-21.89,32.8c-4.72,-2.37 -9.66,-4.34 -14.8,-5.87l6.5,-38.89l-13.05,37.2c-5.11,-1.1 -10.39,-1.78 -15.79,-1.98l0,0l-3.38,-39.29l-3.39,39.29l0,0c-5.39,0.2 -10.68,0.88 -15.79,1.98l-13.04,-37.2l6.49,38.89c-5.14,1.53 -10.08,3.5 -14.79,5.87l-21.9,-32.8l15.97,36.08c-4.56,2.74 -8.86,5.87 -12.85,9.36c0,0 0,0 0,0l-29.4,-26.35l24.46,30.99c-3.73,3.77 -7.12,7.87 -10.14,12.24l-35.02,-18.21l31.39,23.92c0,0 -0.01,0 -0.01,0.01c-2.66,4.55 -4.95,9.36 -6.79,14.38c-0.01,0 -0.01,0 -0.01,0l-38.4,-8.92l36.31,15.35c0,0 0,0 0,0c-1.44,5.05 -2.44,10.28 -2.97,15.63c0,0.01 0,0.01 0,0.01l-39.43,0.91l39,5.84c-0.02,0.76 -0.03,1.52 -0.03,2.29c0,4.62 0.35,9.16 1.02,13.6l-37.95,10.68l39.23,-4.04c0,0 0,0 0,0c0.62,2.71 1.36,5.38 2.22,7.98l7.82,0c-3.2,-8.81 -4.94,-18.31 -4.94,-28.22c0,-45.73 37.21,-82.94 82.94,-82.94c45.73,0 82.94,37.21 82.94,82.94c0,9.91 -1.75,19.41 -4.94,28.22l7.81,0c0.87,-2.6 1.61,-5.27 2.23,-7.98c0,0 0,0 0,0l39.22,4.04l-37.95,-10.68z" fill="#FF8000" id="svg_12" transform="matrix(1 0 0 1 0 0)"/>
  <path d="m75.75,174.09c5.26,8.28 15.84,16.48 23.22,20.18c-17.83,1.23 -35.62,-15.17 -50.92,-35.75c7.34,36.78 38.39,55.41 74.4,61.34c1.98,-25.72 -13.72,-36.4 -46.7,-45.77z" fill="#80C612" id="svg_13"/>
  <path d="m159.64,194.27c7.39,-3.7 17.96,-11.9 23.22,-20.18c-32.98,9.37 -48.68,20.05 -46.7,45.77c36.01,-5.93 67.06,-24.56 74.4,-61.34c-15.3,20.58 -33.09,36.98 -50.92,35.75z" fill="#80C612" id="svg_14"/>
  <path d="m87.83,145.57l-0.27,0.26l0.23,0.28c2.39,2.96 5.13,5.24 8.23,6.81c3.11,1.58 6.86,2.36 11.21,2.36c5.73,0 10.32,-1.35 13.72,-4.1c3.46,-2.76 5.18,-6.58 5.18,-11.41c0,-2.86 -0.51,-5.27 -1.54,-7.19c-0.97,-1.95 -2.26,-3.54 -3.89,-4.76c-1.6,-1.2 -3.36,-2.2 -5.28,-2.98c-1.9,-0.78 -3.82,-1.47 -5.76,-2.09c-1.87,-0.66 -3.59,-1.37 -5.14,-2.13c-1.53,-0.75 -2.77,-1.65 -3.73,-2.68c-0.86,-1.04 -1.32,-2.4 -1.32,-4.13c0,-2.14 0.81,-3.76 2.43,-4.91l0,0l0.01,-0.01c1.64,-1.22 3.88,-1.84 6.75,-1.84c2.36,0 4.41,0.45 6.19,1.34l0,0l0,0.01c1.83,0.89 3.54,2.25 5.14,4.06l0.29,0.33l0.31,-0.31l5.04,-4.93l0.27,-0.25l-0.23,-0.28c-1.82,-2.26 -4.18,-4.07 -7.06,-5.43c-2.9,-1.42 -6.16,-2.13 -9.78,-2.13c-3.3,0 -6.29,0.6 -8.98,1.81c-2.63,1.16 -4.75,2.85 -6.31,5.07l0,0c-1.52,2.19 -2.27,4.83 -2.27,7.93c0,2.77 0.47,5.09 1.46,6.97l0,0l0.01,0.01c1.02,1.85 2.34,3.36 3.97,4.53l0,0l0.01,0c1.6,1.1 3.36,2.04 5.28,2.82l0,0l0.01,0c1.89,0.72 3.78,1.41 5.67,2.08l0,0l0.01,0c1.87,0.62 3.58,1.32 5.13,2.13l0.01,0l0.01,0.01c1.57,0.75 2.8,1.71 3.7,2.88c0.88,1.14 1.33,2.67 1.33,4.62c0,2.28 -0.94,4.06 -2.82,5.37l0,0l0,0c-1.86,1.32 -4.36,2 -7.55,2c-3.25,0 -5.96,-0.58 -8.14,-1.72c-2.19,-1.2 -4.14,-2.95 -5.84,-5.28l-0.29,-0.38l-0.34,0.33l-5.04,4.93z" fill="#ffffff" id="svg_15" stroke="black"/>
  <path d="m150.62,131.63l0,22.45l0,0.39l0.44,0l7.88,0l0.44,0l0,-0.39l0,-22.65l21.47,-28.27l0.45,-0.61l-0.82,0l-8.97,0l-0.24,0l-0.13,0.18l-16.1,21.58l-16.03,-21.58l-0.13,-0.18l-0.24,0l-9.13,0l-0.82,0l0.45,0.61l21.47,28.48z" fill="#ffffff" id="svg_17" stroke="black"/>
 </g>
</svg>